ISO-10303-21;
HEADER;
FILE_DESCRIPTION(('Zoo Text-to-CAD'),'1');
FILE_NAME('dump.step', '2026-02-04T03:58:56.411833358+00:00', ('Author unknown'), ('Organization unknown'), 'zoo.dev beta', 'zoo.dev', 'Authorization unknown');
FILE_SCHEMA(('AP203_CONFIGURATION_CONTROLLED_3D_DESIGN_OF_MECHANICAL_PARTS_AND_ASSEMBLIES_MIM_LF'));
ENDSEC;
DATA;
#1 = (
  LENGTH_UNIT()
  NAMED_UNIT(*)
  SI_UNIT($, .METRE.)
);
#2 = (
  NAMED_UNIT(*)
  PLANE_ANGLE_UNIT()
  SI_UNIT($, .RADIAN.)
);
#3 = UNCERTAINTY_MEASURE_WITH_UNIT(LENGTH_MEASURE(0.00001), #1, 'DISTANCE_ACCURACY_VALUE', $);
#4 = (
  GEOMETRIC_REPRESENTATION_CONTEXT(3)
  GLOBAL_UNCERTAINTY_ASSIGNED_CONTEXT((#3))
  GLOBAL_UNIT_ASSIGNED_CONTEXT((#1, #2))
  REPRESENTATION_CONTEXT('', '3D')
);
#5 = CARTESIAN_POINT('', (0.045, 0, 0));
#6 = VERTEX_POINT('', #5);
#7 = CARTESIAN_POINT('', (0.045, 0, 0.008));
#8 = VERTEX_POINT('', #7);
#9 = CARTESIAN_POINT('', (0.0375, 0, -0.0000009999999999994458));
#10 = VERTEX_POINT('', #9);
#11 = CARTESIAN_POINT('', (0.0375, 0, 0.008));
#12 = VERTEX_POINT('', #11);
#13 = CARTESIAN_POINT('', (0.0000000000000000022962127484012876, 0.0375, -0.0000009999999999994458));
#14 = VERTEX_POINT('', #13);
#15 = CARTESIAN_POINT('', (0.0000000000000000022962127484012876, 0.0375, 0.008));
#16 = VERTEX_POINT('', #15);
#17 = CARTESIAN_POINT('', (-0.0375, 0.000000000000000004592425496802575, -0.0000009999999999994458));
#18 = VERTEX_POINT('', #17);
#19 = CARTESIAN_POINT('', (-0.0375, 0.000000000000000004592425496802575, 0.008));
#20 = VERTEX_POINT('', #19);
#21 = CARTESIAN_POINT('', (-0.000000000000000006888638245203861, -0.0375, -0.0000009999999999994458));
#22 = VERTEX_POINT('', #21);
#23 = CARTESIAN_POINT('', (-0.000000000000000006888638245203861, -0.0375, 0.008));
#24 = VERTEX_POINT('', #23);
#25 = CARTESIAN_POINT('', (0.035, 0, 0.008));
#26 = VERTEX_POINT('', #25);
#27 = CARTESIAN_POINT('', (0.035, 0, 0.068));
#28 = VERTEX_POINT('', #27);
#29 = CARTESIAN_POINT('', (0.01, 0, 0.007999000000000003));
#30 = VERTEX_POINT('', #29);
#31 = CARTESIAN_POINT('', (0.01, 0, 0.068));
#32 = VERTEX_POINT('', #31);
#33 = CARTESIAN_POINT('', (0.02, -0.02, 0.008));
#34 = VERTEX_POINT('', #33);
#35 = CARTESIAN_POINT('', (0.16, -0.02, 0.008));
#36 = VERTEX_POINT('', #35);
#37 = CARTESIAN_POINT('', (0.16, -0.02, 0.038));
#38 = VERTEX_POINT('', #37);
#39 = CARTESIAN_POINT('', (0.02, -0.02, 0.038));
#40 = VERTEX_POINT('', #39);
#41 = CARTESIAN_POINT('', (0.16, 0.02, 0.008));
#42 = VERTEX_POINT('', #41);
#43 = CARTESIAN_POINT('', (0.16, 0.02, 0.038));
#44 = VERTEX_POINT('', #43);
#45 = CARTESIAN_POINT('', (0.02, 0.02, 0.008));
#46 = VERTEX_POINT('', #45);
#47 = CARTESIAN_POINT('', (0.02, 0.02, 0.038));
#48 = VERTEX_POINT('', #47);
#49 = CARTESIAN_POINT('', (0.04, 0, 0.008));
#50 = VERTEX_POINT('', #49);
#51 = CARTESIAN_POINT('', (0.04, 0, 0.038));
#52 = VERTEX_POINT('', #51);
#53 = CARTESIAN_POINT('', (0.18, 0, 0.008));
#54 = VERTEX_POINT('', #53);
#55 = CARTESIAN_POINT('', (0.18, 0, 0.038));
#56 = VERTEX_POINT('', #55);
#57 = CARTESIAN_POINT('', (0.03, -0.006, 0.007999));
#58 = VERTEX_POINT('', #57);
#59 = CARTESIAN_POINT('', (0.15, -0.006, 0.007999));
#60 = VERTEX_POINT('', #59);
#61 = CARTESIAN_POINT('', (0.15, -0.006, 0.038));
#62 = VERTEX_POINT('', #61);
#63 = CARTESIAN_POINT('', (0.03, -0.006, 0.038));
#64 = VERTEX_POINT('', #63);
#65 = CARTESIAN_POINT('', (0.15, 0.006, 0.007999));
#66 = VERTEX_POINT('', #65);
#67 = CARTESIAN_POINT('', (0.15, 0.006, 0.038));
#68 = VERTEX_POINT('', #67);
#69 = CARTESIAN_POINT('', (0.03, 0.006, 0.007999));
#70 = VERTEX_POINT('', #69);
#71 = CARTESIAN_POINT('', (0.03, 0.006, 0.038));
#72 = VERTEX_POINT('', #71);
#73 = CARTESIAN_POINT('', (0.21, 0, 0.008));
#74 = VERTEX_POINT('', #73);
#75 = CARTESIAN_POINT('', (0.21, 0, 0.058));
#76 = VERTEX_POINT('', #75);
#77 = CARTESIAN_POINT('', (0.189, 0, 0.007999000000000003));
#78 = VERTEX_POINT('', #77);
#79 = CARTESIAN_POINT('', (0.189, 0, 0.058));
#80 = VERTEX_POINT('', #79);
#81 = CARTESIAN_POINT('', (0.197, -0.0175, 0.008));
#82 = VERTEX_POINT('', #81);
#83 = CARTESIAN_POINT('', (0.303, -0.0175, 0.008));
#84 = VERTEX_POINT('', #83);
#85 = CARTESIAN_POINT('', (0.303, -0.0175, 0.036));
#86 = VERTEX_POINT('', #85);
#87 = CARTESIAN_POINT('', (0.197, -0.0175, 0.036));
#88 = VERTEX_POINT('', #87);
#89 = CARTESIAN_POINT('', (0.303, 0.0175, 0.008));
#90 = VERTEX_POINT('', #89);
#91 = CARTESIAN_POINT('', (0.303, 0.0175, 0.036));
#92 = VERTEX_POINT('', #91);
#93 = CARTESIAN_POINT('', (0.197, 0.0175, 0.008));
#94 = VERTEX_POINT('', #93);
#95 = CARTESIAN_POINT('', (0.197, 0.0175, 0.036));
#96 = VERTEX_POINT('', #95);
#97 = CARTESIAN_POINT('', (0.214, 0, 0.008));
#98 = VERTEX_POINT('', #97);
#99 = CARTESIAN_POINT('', (0.214, 0, 0.036));
#100 = VERTEX_POINT('', #99);
#101 = CARTESIAN_POINT('', (0.32, 0, 0.008));
#102 = VERTEX_POINT('', #101);
#103 = CARTESIAN_POINT('', (0.32, 0, 0.036));
#104 = VERTEX_POINT('', #103);
#105 = CARTESIAN_POINT('', (0.302, 0, 0.007999));
#106 = VERTEX_POINT('', #105);
#107 = CARTESIAN_POINT('', (0.302, 0, 0.036));
#108 = VERTEX_POINT('', #107);
#109 = CARTESIAN_POINT('', (0.328, 0, 0.008));
#110 = VERTEX_POINT('', #109);
#111 = CARTESIAN_POINT('', (0.328, 0, 0.048));
#112 = VERTEX_POINT('', #111);
#113 = CARTESIAN_POINT('', (0.311, 0, 0.007999000000000003));
#114 = VERTEX_POINT('', #113);
#115 = CARTESIAN_POINT('', (0.311, 0, 0.048));
#116 = VERTEX_POINT('', #115);
#117 = CARTESIAN_POINT('', (0.3255, 0, 0.048));
#118 = VERTEX_POINT('', #117);
#119 = CARTESIAN_POINT('', (0.3255, 0, 0.054));
#120 = VERTEX_POINT('', #119);
#121 = CARTESIAN_POINT('', (0.3195, 0, 0.047999));
#122 = VERTEX_POINT('', #121);
#123 = CARTESIAN_POINT('', (0.3195, 0, 0.054));
#124 = VERTEX_POINT('', #123);
#125 = CARTESIAN_POINT('', (0.29475, 0.014289419162443239, 0.047999));
#126 = VERTEX_POINT('', #125);
#127 = CARTESIAN_POINT('', (0.29475, 0.014289419162443239, 0.054));
#128 = VERTEX_POINT('', #127);
#129 = CARTESIAN_POINT('', (0.29475, -0.014289419162443239, 0.047999));
#130 = VERTEX_POINT('', #129);
#131 = CARTESIAN_POINT('', (0.29475, -0.014289419162443239, 0.054));
#132 = VERTEX_POINT('', #131);
#133 = DIRECTION('', (1, 0, 0));
#134 = DIRECTION('', (0, -0, 1));
#135 = CARTESIAN_POINT('', (0, -0, 0));
#136 = AXIS2_PLACEMENT_3D('', #135, #134, #133);
#137 = CIRCLE('', #136, 0.045);
#138 = DIRECTION('', (0, -0, 1));
#139 = VECTOR('', #138, 1);
#140 = CARTESIAN_POINT('', (0.045, 0, 0));
#141 = LINE('', #140, #139);
#142 = DIRECTION('', (1, 0, 0));
#143 = DIRECTION('', (0, -0, 1));
#144 = CARTESIAN_POINT('', (0, -0, 0.008));
#145 = AXIS2_PLACEMENT_3D('', #144, #143, #142);
#146 = CIRCLE('', #145, 0.045);
#147 = DIRECTION('', (1, 0, 0));
#148 = DIRECTION('', (0, -0, 1));
#149 = CARTESIAN_POINT('', (0.035, -0, -0.0000009999999999994458));
#150 = AXIS2_PLACEMENT_3D('', #149, #148, #147);
#151 = CIRCLE('', #150, 0.0025);
#152 = DIRECTION('', (0, -0, 1));
#153 = VECTOR('', #152, 1);
#154 = CARTESIAN_POINT('', (0.0375, 0, -0.0000009999999999994458));
#155 = LINE('', #154, #153);
#156 = DIRECTION('', (1, 0, 0));
#157 = DIRECTION('', (0, -0, 1));
#158 = CARTESIAN_POINT('', (0.035, -0, 0.008));
#159 = AXIS2_PLACEMENT_3D('', #158, #157, #156);
#160 = CIRCLE('', #159, 0.0025);
#161 = DIRECTION('', (0.000000000000000918485099360515, 1, 0));
#162 = DIRECTION('', (0, -0, 1));
#163 = CARTESIAN_POINT('', (0, 0.035, -0.0000009999999999994458));
#164 = AXIS2_PLACEMENT_3D('', #163, #162, #161);
#165 = CIRCLE('', #164, 0.0025);
#166 = DIRECTION('', (0, -0, 1));
#167 = VECTOR('', #166, 1);
#168 = CARTESIAN_POINT('', (0.0000000000000000022962127484012876, 0.0375, -0.0000009999999999994458));
#169 = LINE('', #168, #167);
#170 = DIRECTION('', (0.000000000000000918485099360515, 1, 0));
#171 = DIRECTION('', (0, -0, 1));
#172 = CARTESIAN_POINT('', (0, 0.035, 0.008));
#173 = AXIS2_PLACEMENT_3D('', #172, #171, #170);
#174 = CIRCLE('', #173, 0.0025);
#175 = DIRECTION('', (-1, -0.00000000000000017274814839420247, 0));
#176 = DIRECTION('', (0, 0, 1));
#177 = CARTESIAN_POINT('', (-0.035, 0.000000000000000005024295867788082, -0.0000009999999999994458));
#178 = AXIS2_PLACEMENT_3D('', #177, #176, #175);
#179 = CIRCLE('', #178, 0.0025);
#180 = DIRECTION('', (0, -0, 1));
#181 = VECTOR('', #180, 1);
#182 = CARTESIAN_POINT('', (-0.0375, 0.000000000000000004592425496802575, -0.0000009999999999994458));
#183 = LINE('', #182, #181);
#184 = DIRECTION('', (-1, -0.00000000000000017274814839420247, 0));
#185 = DIRECTION('', (0, 0, 1));
#186 = CARTESIAN_POINT('', (-0.035, 0.000000000000000005024295867788082, 0.008));
#187 = AXIS2_PLACEMENT_3D('', #186, #185, #184);
#188 = CIRCLE('', #187, 0.0025);
#189 = DIRECTION('', (0.0000000000000029288865879992483, -1, 0));
#190 = DIRECTION('', (-0, -0, 1));
#191 = CARTESIAN_POINT('', (-0.000000000000000014210854715202004, -0.03499999999999999, -0.0000009999999999994458));
#192 = AXIS2_PLACEMENT_3D('', #191, #190, #189);
#193 = CIRCLE('', #192, 0.002500000000000007);
#194 = DIRECTION('', (0, -0, 1));
#195 = VECTOR('', #194, 1);
#196 = CARTESIAN_POINT('', (-0.000000000000000006888638245203861, -0.0375, -0.0000009999999999994458));
#197 = LINE('', #196, #195);
#198 = DIRECTION('', (0.0000000000000029288865879992483, -1, 0));
#199 = DIRECTION('', (-0, -0, 1));
#200 = CARTESIAN_POINT('', (-0.000000000000000014210854715202004, -0.03499999999999999, 0.008));
#201 = AXIS2_PLACEMENT_3D('', #200, #199, #198);
#202 = CIRCLE('', #201, 0.002500000000000007);
#203 = DIRECTION('', (1, -0.000000000000000035887827627057714, 0));
#204 = DIRECTION('', (-0, -0, 1));
#205 = CARTESIAN_POINT('', (0.0000000000000000012560739669470202, 0.00000000000000000125607396694702, 0.008));
#206 = AXIS2_PLACEMENT_3D('', #205, #204, #203);
#207 = CIRCLE('', #206, 0.035);
#208 = DIRECTION('', (0, -0, 1));
#209 = VECTOR('', #208, 1);
#210 = CARTESIAN_POINT('', (0.035, 0, 0.008));
#211 = LINE('', #210, #209);
#212 = DIRECTION('', (1, -0.000000000000000035887827627057714, 0));
#213 = DIRECTION('', (-0, -0, 1));
#214 = CARTESIAN_POINT('', (0.0000000000000000012560739669470202, 0.00000000000000000125607396694702, 0.068));
#215 = AXIS2_PLACEMENT_3D('', #214, #213, #212);
#216 = CIRCLE('', #215, 0.035);
#217 = DIRECTION('', (1, 0, 0));
#218 = DIRECTION('', (0, -0, 1));
#219 = CARTESIAN_POINT('', (0, -0, 0.007999000000000003));
#220 = AXIS2_PLACEMENT_3D('', #219, #218, #217);
#221 = CIRCLE('', #220, 0.01);
#222 = DIRECTION('', (0, -0, 1));
#223 = VECTOR('', #222, 1);
#224 = CARTESIAN_POINT('', (0.01, 0, 0.007999000000000003));
#225 = LINE('', #224, #223);
#226 = DIRECTION('', (1, 0, 0));
#227 = DIRECTION('', (0, -0, 1));
#228 = CARTESIAN_POINT('', (0, -0, 0.068));
#229 = AXIS2_PLACEMENT_3D('', #228, #227, #226);
#230 = CIRCLE('', #229, 0.01);
#231 = DIRECTION('', (1, -0, 0));
#232 = VECTOR('', #231, 1);
#233 = CARTESIAN_POINT('', (0.02, -0.02, 0.008));
#234 = LINE('', #233, #232);
#235 = DIRECTION('', (0, -0, 1));
#236 = VECTOR('', #235, 1);
#237 = CARTESIAN_POINT('', (0.16, -0.02, 0.008));
#238 = LINE('', #237, #236);
#239 = DIRECTION('', (1, -0, 0));
#240 = VECTOR('', #239, 1);
#241 = CARTESIAN_POINT('', (0.02, -0.02, 0.038));
#242 = LINE('', #241, #240);
#243 = DIRECTION('', (0, -0, 1));
#244 = VECTOR('', #243, 1);
#245 = CARTESIAN_POINT('', (0.02, -0.02, 0.008));
#246 = LINE('', #245, #244);
#247 = DIRECTION('', (0, 1, 0));
#248 = VECTOR('', #247, 1);
#249 = CARTESIAN_POINT('', (0.16, -0.02, 0.008));
#250 = LINE('', #249, #248);
#251 = DIRECTION('', (0, -0, 1));
#252 = VECTOR('', #251, 1);
#253 = CARTESIAN_POINT('', (0.16, 0.02, 0.008));
#254 = LINE('', #253, #252);
#255 = DIRECTION('', (0, 1, 0));
#256 = VECTOR('', #255, 1);
#257 = CARTESIAN_POINT('', (0.16, -0.02, 0.038));
#258 = LINE('', #257, #256);
#259 = DIRECTION('', (-1, -0, 0));
#260 = VECTOR('', #259, 1);
#261 = CARTESIAN_POINT('', (0.16, 0.02, 0.008));
#262 = LINE('', #261, #260);
#263 = DIRECTION('', (0, -0, 1));
#264 = VECTOR('', #263, 1);
#265 = CARTESIAN_POINT('', (0.02, 0.02, 0.008));
#266 = LINE('', #265, #264);
#267 = DIRECTION('', (-1, -0, 0));
#268 = VECTOR('', #267, 1);
#269 = CARTESIAN_POINT('', (0.16, 0.02, 0.038));
#270 = LINE('', #269, #268);
#271 = DIRECTION('', (0, -1, 0));
#272 = VECTOR('', #271, 1);
#273 = CARTESIAN_POINT('', (0.02, 0.02, 0.008));
#274 = LINE('', #273, #272);
#275 = DIRECTION('', (0, -1, 0));
#276 = VECTOR('', #275, 1);
#277 = CARTESIAN_POINT('', (0.02, 0.02, 0.038));
#278 = LINE('', #277, #276);
#279 = DIRECTION('', (1, -0.000000000000000062803698347351, 0));
#280 = DIRECTION('', (-0, -0, 1));
#281 = CARTESIAN_POINT('', (0.02, 0.0000000000000000012560739669470202, 0.008));
#282 = AXIS2_PLACEMENT_3D('', #281, #280, #279);
#283 = CIRCLE('', #282, 0.02);
#284 = DIRECTION('', (0, -0, 1));
#285 = VECTOR('', #284, 1);
#286 = CARTESIAN_POINT('', (0.04, 0, 0.008));
#287 = LINE('', #286, #285);
#288 = DIRECTION('', (1, -0.000000000000000062803698347351, 0));
#289 = DIRECTION('', (-0, -0, 1));
#290 = CARTESIAN_POINT('', (0.02, 0.0000000000000000012560739669470202, 0.038));
#291 = AXIS2_PLACEMENT_3D('', #290, #289, #288);
#292 = CIRCLE('', #291, 0.02);
#293 = DIRECTION('', (1, 0, 0));
#294 = DIRECTION('', (0, -0, 1));
#295 = CARTESIAN_POINT('', (0.16, -0, 0.008));
#296 = AXIS2_PLACEMENT_3D('', #295, #294, #293);
#297 = CIRCLE('', #296, 0.02);
#298 = DIRECTION('', (0, -0, 1));
#299 = VECTOR('', #298, 1);
#300 = CARTESIAN_POINT('', (0.18, 0, 0.008));
#301 = LINE('', #300, #299);
#302 = DIRECTION('', (1, 0, 0));
#303 = DIRECTION('', (0, -0, 1));
#304 = CARTESIAN_POINT('', (0.16, -0, 0.038));
#305 = AXIS2_PLACEMENT_3D('', #304, #303, #302);
#306 = CIRCLE('', #305, 0.02);
#307 = DIRECTION('', (1, -0, 0));
#308 = VECTOR('', #307, 1);
#309 = CARTESIAN_POINT('', (0.03, -0.006, 0.007999));
#310 = LINE('', #309, #308);
#311 = DIRECTION('', (0, -0, 1));
#312 = VECTOR('', #311, 1);
#313 = CARTESIAN_POINT('', (0.15, -0.006, 0.007999));
#314 = LINE('', #313, #312);
#315 = DIRECTION('', (1, -0, 0));
#316 = VECTOR('', #315, 1);
#317 = CARTESIAN_POINT('', (0.03, -0.006, 0.038));
#318 = LINE('', #317, #316);
#319 = DIRECTION('', (0, -0, 1));
#320 = VECTOR('', #319, 1);
#321 = CARTESIAN_POINT('', (0.03, -0.006, 0.007999));
#322 = LINE('', #321, #320);
#323 = DIRECTION('', (0, 1, 0));
#324 = VECTOR('', #323, 1);
#325 = CARTESIAN_POINT('', (0.15, -0.006, 0.007999));
#326 = LINE('', #325, #324);
#327 = DIRECTION('', (0, -0, 1));
#328 = VECTOR('', #327, 1);
#329 = CARTESIAN_POINT('', (0.15, 0.006, 0.007999));
#330 = LINE('', #329, #328);
#331 = DIRECTION('', (0, 1, 0));
#332 = VECTOR('', #331, 1);
#333 = CARTESIAN_POINT('', (0.15, -0.006, 0.038));
#334 = LINE('', #333, #332);
#335 = DIRECTION('', (-1, -0, 0));
#336 = VECTOR('', #335, 1);
#337 = CARTESIAN_POINT('', (0.15, 0.006, 0.007999));
#338 = LINE('', #337, #336);
#339 = DIRECTION('', (0, -0, 1));
#340 = VECTOR('', #339, 1);
#341 = CARTESIAN_POINT('', (0.03, 0.006, 0.007999));
#342 = LINE('', #341, #340);
#343 = DIRECTION('', (-1, -0, 0));
#344 = VECTOR('', #343, 1);
#345 = CARTESIAN_POINT('', (0.15, 0.006, 0.038));
#346 = LINE('', #345, #344);
#347 = DIRECTION('', (0, -1, 0));
#348 = VECTOR('', #347, 1);
#349 = CARTESIAN_POINT('', (0.03, 0.006, 0.007999));
#350 = LINE('', #349, #348);
#351 = DIRECTION('', (0, -1, 0));
#352 = VECTOR('', #351, 1);
#353 = CARTESIAN_POINT('', (0.03, 0.006, 0.038));
#354 = LINE('', #353, #352);
#355 = DIRECTION('', (1, -0.0000000000000009473903143467994, 0));
#356 = DIRECTION('', (-0, -0, 1));
#357 = CARTESIAN_POINT('', (0.17999999999999997, 0.00000000000000002842170943040401, 0.008));
#358 = AXIS2_PLACEMENT_3D('', #357, #356, #355);
#359 = CIRCLE('', #358, 0.03000000000000003);
#360 = DIRECTION('', (0, -0, 1));
#361 = VECTOR('', #360, 1);
#362 = CARTESIAN_POINT('', (0.21, 0, 0.008));
#363 = LINE('', #362, #361);
#364 = DIRECTION('', (1, -0.0000000000000009473903143467994, 0));
#365 = DIRECTION('', (-0, -0, 1));
#366 = CARTESIAN_POINT('', (0.17999999999999997, 0.00000000000000002842170943040401, 0.058));
#367 = AXIS2_PLACEMENT_3D('', #366, #365, #364);
#368 = CIRCLE('', #367, 0.03000000000000003);
#369 = DIRECTION('', (1, 0.000000000000001116510192841796, 0));
#370 = DIRECTION('', (0, -0, 1));
#371 = CARTESIAN_POINT('', (0.18, -0.000000000000000010048591735576163, 0.007999000000000003));
#372 = AXIS2_PLACEMENT_3D('', #371, #370, #369);
#373 = CIRCLE('', #372, 0.009);
#374 = DIRECTION('', (0, -0, 1));
#375 = VECTOR('', #374, 1);
#376 = CARTESIAN_POINT('', (0.189, 0, 0.007999000000000003));
#377 = LINE('', #376, #375);
#378 = DIRECTION('', (1, 0.000000000000001116510192841796, 0));
#379 = DIRECTION('', (0, -0, 1));
#380 = CARTESIAN_POINT('', (0.18, -0.000000000000000010048591735576163, 0.058));
#381 = AXIS2_PLACEMENT_3D('', #380, #379, #378);
#382 = CIRCLE('', #381, 0.009);
#383 = DIRECTION('', (1, -0, 0));
#384 = VECTOR('', #383, 1);
#385 = CARTESIAN_POINT('', (0.197, -0.0175, 0.008));
#386 = LINE('', #385, #384);
#387 = DIRECTION('', (0, -0, 1));
#388 = VECTOR('', #387, 1);
#389 = CARTESIAN_POINT('', (0.303, -0.0175, 0.008));
#390 = LINE('', #389, #388);
#391 = DIRECTION('', (1, -0, 0));
#392 = VECTOR('', #391, 1);
#393 = CARTESIAN_POINT('', (0.197, -0.0175, 0.036));
#394 = LINE('', #393, #392);
#395 = DIRECTION('', (0, -0, 1));
#396 = VECTOR('', #395, 1);
#397 = CARTESIAN_POINT('', (0.197, -0.0175, 0.008));
#398 = LINE('', #397, #396);
#399 = DIRECTION('', (0, 1, 0));
#400 = VECTOR('', #399, 1);
#401 = CARTESIAN_POINT('', (0.303, -0.0175, 0.008));
#402 = LINE('', #401, #400);
#403 = DIRECTION('', (0, -0, 1));
#404 = VECTOR('', #403, 1);
#405 = CARTESIAN_POINT('', (0.303, 0.0175, 0.008));
#406 = LINE('', #405, #404);
#407 = DIRECTION('', (0, 1, 0));
#408 = VECTOR('', #407, 1);
#409 = CARTESIAN_POINT('', (0.303, -0.0175, 0.036));
#410 = LINE('', #409, #408);
#411 = DIRECTION('', (-1, -0, 0));
#412 = VECTOR('', #411, 1);
#413 = CARTESIAN_POINT('', (0.303, 0.0175, 0.008));
#414 = LINE('', #413, #412);
#415 = DIRECTION('', (0, -0, 1));
#416 = VECTOR('', #415, 1);
#417 = CARTESIAN_POINT('', (0.197, 0.0175, 0.008));
#418 = LINE('', #417, #416);
#419 = DIRECTION('', (-1, -0, 0));
#420 = VECTOR('', #419, 1);
#421 = CARTESIAN_POINT('', (0.303, 0.0175, 0.036));
#422 = LINE('', #421, #420);
#423 = DIRECTION('', (0, -1, 0));
#424 = VECTOR('', #423, 1);
#425 = CARTESIAN_POINT('', (0.197, 0.0175, 0.008));
#426 = LINE('', #425, #424);
#427 = DIRECTION('', (0, -1, 0));
#428 = VECTOR('', #427, 1);
#429 = CARTESIAN_POINT('', (0.197, 0.0175, 0.036));
#430 = LINE('', #429, #428);
#431 = DIRECTION('', (1, 0.0000000000000011821872630089601, 0));
#432 = DIRECTION('', (0, -0, 1));
#433 = CARTESIAN_POINT('', (0.197, -0.000000000000000020097183471152324, 0.008));
#434 = AXIS2_PLACEMENT_3D('', #433, #432, #431);
#435 = CIRCLE('', #434, 0.017);
#436 = DIRECTION('', (0, -0, 1));
#437 = VECTOR('', #436, 1);
#438 = CARTESIAN_POINT('', (0.214, 0, 0.008));
#439 = LINE('', #438, #437);
#440 = DIRECTION('', (1, 0.0000000000000011821872630089601, 0));
#441 = DIRECTION('', (0, -0, 1));
#442 = CARTESIAN_POINT('', (0.197, -0.000000000000000020097183471152324, 0.036));
#443 = AXIS2_PLACEMENT_3D('', #442, #441, #440);
#444 = CIRCLE('', #443, 0.017);
#445 = DIRECTION('', (1, 0.0000000000000023643745260179203, 0));
#446 = DIRECTION('', (0, -0, 1));
#447 = CARTESIAN_POINT('', (0.303, -0.00000000000000004019436694230465, 0.008));
#448 = AXIS2_PLACEMENT_3D('', #447, #446, #445);
#449 = CIRCLE('', #448, 0.017);
#450 = DIRECTION('', (0, -0, 1));
#451 = VECTOR('', #450, 1);
#452 = CARTESIAN_POINT('', (0.32, 0, 0.008));
#453 = LINE('', #452, #451);
#454 = DIRECTION('', (1, 0.0000000000000023643745260179203, 0));
#455 = DIRECTION('', (0, -0, 1));
#456 = CARTESIAN_POINT('', (0.303, -0.00000000000000004019436694230465, 0.036));
#457 = AXIS2_PLACEMENT_3D('', #456, #455, #454);
#458 = CIRCLE('', #457, 0.017);
#459 = DIRECTION('', (1, 0.000000000000008038873388460928, 0));
#460 = DIRECTION('', (0, -0, 1));
#461 = CARTESIAN_POINT('', (0.297, -0.00000000000000004019436694230465, 0.007999));
#462 = AXIS2_PLACEMENT_3D('', #461, #460, #459);
#463 = CIRCLE('', #462, 0.005);
#464 = DIRECTION('', (0, -0, 1));
#465 = VECTOR('', #464, 1);
#466 = CARTESIAN_POINT('', (0.302, 0, 0.007999));
#467 = LINE('', #466, #465);
#468 = DIRECTION('', (1, 0.000000000000008038873388460928, 0));
#469 = DIRECTION('', (0, -0, 1));
#470 = CARTESIAN_POINT('', (0.297, -0.00000000000000004019436694230465, 0.036));
#471 = AXIS2_PLACEMENT_3D('', #470, #469, #468);
#472 = CIRCLE('', #471, 0.005);
#473 = DIRECTION('', (1, 0.0000000000000008038873388460928, 0));
#474 = DIRECTION('', (0, -0, 1));
#475 = CARTESIAN_POINT('', (0.303, -0.000000000000000020097183471152324, 0.008));
#476 = AXIS2_PLACEMENT_3D('', #475, #474, #473);
#477 = CIRCLE('', #476, 0.025);
#478 = DIRECTION('', (0, -0, 1));
#479 = VECTOR('', #478, 1);
#480 = CARTESIAN_POINT('', (0.328, 0, 0.008));
#481 = LINE('', #480, #479);
#482 = DIRECTION('', (1, 0.0000000000000008038873388460928, 0));
#483 = DIRECTION('', (0, -0, 1));
#484 = CARTESIAN_POINT('', (0.303, -0.000000000000000020097183471152324, 0.048));
#485 = AXIS2_PLACEMENT_3D('', #484, #483, #482);
#486 = CIRCLE('', #485, 0.025);
#487 = DIRECTION('', (1, 0.0000000000000050242958677880805, 0));
#488 = DIRECTION('', (0, -0, 1));
#489 = CARTESIAN_POINT('', (0.303, -0.00000000000000004019436694230465, 0.007999000000000003));
#490 = AXIS2_PLACEMENT_3D('', #489, #488, #487);
#491 = CIRCLE('', #490, 0.008);
#492 = DIRECTION('', (0, -0, 1));
#493 = VECTOR('', #492, 1);
#494 = CARTESIAN_POINT('', (0.311, 0, 0.007999000000000003));
#495 = LINE('', #494, #493);
#496 = DIRECTION('', (1, 0.0000000000000050242958677880805, 0));
#497 = DIRECTION('', (0, -0, 1));
#498 = CARTESIAN_POINT('', (0.303, -0.00000000000000004019436694230465, 0.048));
#499 = AXIS2_PLACEMENT_3D('', #498, #497, #496);
#500 = CIRCLE('', #499, 0.008);
#501 = DIRECTION('', (1, 0, 0));
#502 = DIRECTION('', (0, -0, 1));
#503 = CARTESIAN_POINT('', (0.303, -0, 0.048));
#504 = AXIS2_PLACEMENT_3D('', #503, #502, #501);
#505 = CIRCLE('', #504, 0.0225);
#506 = DIRECTION('', (0, -0, 1));
#507 = VECTOR('', #506, 1);
#508 = CARTESIAN_POINT('', (0.3255, 0, 0.048));
#509 = LINE('', #508, #507);
#510 = DIRECTION('', (1, 0, 0));
#511 = DIRECTION('', (0, -0, 1));
#512 = CARTESIAN_POINT('', (0.303, -0, 0.054));
#513 = AXIS2_PLACEMENT_3D('', #512, #511, #510);
#514 = CIRCLE('', #513, 0.0225);
#515 = DIRECTION('', (1, 0, 0));
#516 = DIRECTION('', (0, -0, 1));
#517 = CARTESIAN_POINT('', (0.318, -0, 0.047999));
#518 = AXIS2_PLACEMENT_3D('', #517, #516, #515);
#519 = CIRCLE('', #518, 0.0015);
#520 = DIRECTION('', (0, -0, 1));
#521 = VECTOR('', #520, 1);
#522 = CARTESIAN_POINT('', (0.3195, 0, 0.047999));
#523 = LINE('', #522, #521);
#524 = DIRECTION('', (1, 0, 0));
#525 = DIRECTION('', (0, -0, 1));
#526 = CARTESIAN_POINT('', (0.318, -0, 0.054));
#527 = AXIS2_PLACEMENT_3D('', #526, #525, #524);
#528 = CIRCLE('', #527, 0.0015);
#529 = DIRECTION('', (-0.4999999999999954, 0.8660254037844414, -0.0000000000000047369515717339576));
#530 = DIRECTION('', (-0.000000000000004419635984676004, 0.0000000000000029180825046848104, 1.0000000000000002));
#531 = CARTESIAN_POINT('', (0.2955, 0.012990381056766564, 0.04799900000000001));
#532 = AXIS2_PLACEMENT_3D('', #531, #530, #529);
#533 = CIRCLE('', #532, 0.0015000000000000137);
#534 = DIRECTION('', (0, -0, 1));
#535 = VECTOR('', #534, 1);
#536 = CARTESIAN_POINT('', (0.29475, 0.014289419162443239, 0.047999));
#537 = LINE('', #536, #535);
#538 = DIRECTION('', (-0.4999999999999954, 0.8660254037844414, 0));
#539 = DIRECTION('', (0, -0, 1.0000000000000002));
#540 = CARTESIAN_POINT('', (0.2955, 0.012990381056766564, 0.054));
#541 = AXIS2_PLACEMENT_3D('', #540, #539, #538);
#542 = CIRCLE('', #541, 0.0015000000000000137);
#543 = DIRECTION('', (-0.49999999999996336, -0.8660254037844598, 0));
#544 = DIRECTION('', (-0.00000000000000615348059642788, 0.0000000000000035527136788004284, 1));
#545 = CARTESIAN_POINT('', (0.29549999999999993, -0.012990381056766552, 0.047999));
#546 = AXIS2_PLACEMENT_3D('', #545, #544, #543);
#547 = CIRCLE('', #546, 0.0014999999999999961);
#548 = DIRECTION('', (0, -0, 1));
#549 = VECTOR('', #548, 1);
#550 = CARTESIAN_POINT('', (0.29475, -0.014289419162443239, 0.047999));
#551 = LINE('', #550, #549);
#552 = DIRECTION('', (-0.49999999999996336, -0.8660254037844598, 0.000000000000004736951571734013));
#553 = DIRECTION('', (-0.000000000000005836165009370167, 0.000000000000008839271969352184, 1));
#554 = CARTESIAN_POINT('', (0.29549999999999993, -0.012990381056766552, 0.05399999999999999));
#555 = AXIS2_PLACEMENT_3D('', #554, #553, #552);
#556 = CIRCLE('', #555, 0.0014999999999999961);
#557 = EDGE_CURVE('', #6, #6, #137, .T.);
#558 = EDGE_CURVE('', #6, #8, #141, .T.);
#559 = EDGE_CURVE('', #8, #8, #146, .T.);
#560 = EDGE_CURVE('', #10, #10, #151, .T.);
#561 = EDGE_CURVE('', #10, #12, #155, .T.);
#562 = EDGE_CURVE('', #12, #12, #160, .T.);
#563 = EDGE_CURVE('', #14, #14, #165, .T.);
#564 = EDGE_CURVE('', #14, #16, #169, .T.);
#565 = EDGE_CURVE('', #16, #16, #174, .T.);
#566 = EDGE_CURVE('', #18, #18, #179, .T.);
#567 = EDGE_CURVE('', #18, #20, #183, .T.);
#568 = EDGE_CURVE('', #20, #20, #188, .T.);
#569 = EDGE_CURVE('', #22, #22, #193, .T.);
#570 = EDGE_CURVE('', #22, #24, #197, .T.);
#571 = EDGE_CURVE('', #24, #24, #202, .T.);
#572 = EDGE_CURVE('', #26, #26, #207, .T.);
#573 = EDGE_CURVE('', #26, #28, #211, .T.);
#574 = EDGE_CURVE('', #28, #28, #216, .T.);
#575 = EDGE_CURVE('', #30, #30, #221, .T.);
#576 = EDGE_CURVE('', #30, #32, #225, .T.);
#577 = EDGE_CURVE('', #32, #32, #230, .T.);
#578 = EDGE_CURVE('', #34, #36, #234, .T.);
#579 = EDGE_CURVE('', #36, #38, #238, .T.);
#580 = EDGE_CURVE('', #40, #38, #242, .T.);
#581 = EDGE_CURVE('', #34, #40, #246, .T.);
#582 = EDGE_CURVE('', #36, #42, #250, .T.);
#583 = EDGE_CURVE('', #42, #44, #254, .T.);
#584 = EDGE_CURVE('', #38, #44, #258, .T.);
#585 = EDGE_CURVE('', #42, #46, #262, .T.);
#586 = EDGE_CURVE('', #46, #48, #266, .T.);
#587 = EDGE_CURVE('', #44, #48, #270, .T.);
#588 = EDGE_CURVE('', #46, #34, #274, .T.);
#589 = EDGE_CURVE('', #48, #40, #278, .T.);
#590 = EDGE_CURVE('', #50, #50, #283, .T.);
#591 = EDGE_CURVE('', #50, #52, #287, .T.);
#592 = EDGE_CURVE('', #52, #52, #292, .T.);
#593 = EDGE_CURVE('', #54, #54, #297, .T.);
#594 = EDGE_CURVE('', #54, #56, #301, .T.);
#595 = EDGE_CURVE('', #56, #56, #306, .T.);
#596 = EDGE_CURVE('', #58, #60, #310, .T.);
#597 = EDGE_CURVE('', #60, #62, #314, .T.);
#598 = EDGE_CURVE('', #64, #62, #318, .T.);
#599 = EDGE_CURVE('', #58, #64, #322, .T.);
#600 = EDGE_CURVE('', #60, #66, #326, .T.);
#601 = EDGE_CURVE('', #66, #68, #330, .T.);
#602 = EDGE_CURVE('', #62, #68, #334, .T.);
#603 = EDGE_CURVE('', #66, #70, #338, .T.);
#604 = EDGE_CURVE('', #70, #72, #342, .T.);
#605 = EDGE_CURVE('', #68, #72, #346, .T.);
#606 = EDGE_CURVE('', #70, #58, #350, .T.);
#607 = EDGE_CURVE('', #72, #64, #354, .T.);
#608 = EDGE_CURVE('', #74, #74, #359, .T.);
#609 = EDGE_CURVE('', #74, #76, #363, .T.);
#610 = EDGE_CURVE('', #76, #76, #368, .T.);
#611 = EDGE_CURVE('', #78, #78, #373, .T.);
#612 = EDGE_CURVE('', #78, #80, #377, .T.);
#613 = EDGE_CURVE('', #80, #80, #382, .T.);
#614 = EDGE_CURVE('', #82, #84, #386, .T.);
#615 = EDGE_CURVE('', #84, #86, #390, .T.);
#616 = EDGE_CURVE('', #88, #86, #394, .T.);
#617 = EDGE_CURVE('', #82, #88, #398, .T.);
#618 = EDGE_CURVE('', #84, #90, #402, .T.);
#619 = EDGE_CURVE('', #90, #92, #406, .T.);
#620 = EDGE_CURVE('', #86, #92, #410, .T.);
#621 = EDGE_CURVE('', #90, #94, #414, .T.);
#622 = EDGE_CURVE('', #94, #96, #418, .T.);
#623 = EDGE_CURVE('', #92, #96, #422, .T.);
#624 = EDGE_CURVE('', #94, #82, #426, .T.);
#625 = EDGE_CURVE('', #96, #88, #430, .T.);
#626 = EDGE_CURVE('', #98, #98, #435, .T.);
#627 = EDGE_CURVE('', #98, #100, #439, .T.);
#628 = EDGE_CURVE('', #100, #100, #444, .T.);
#629 = EDGE_CURVE('', #102, #102, #449, .T.);
#630 = EDGE_CURVE('', #102, #104, #453, .T.);
#631 = EDGE_CURVE('', #104, #104, #458, .T.);
#632 = EDGE_CURVE('', #106, #106, #463, .T.);
#633 = EDGE_CURVE('', #106, #108, #467, .T.);
#634 = EDGE_CURVE('', #108, #108, #472, .T.);
#635 = EDGE_CURVE('', #110, #110, #477, .T.);
#636 = EDGE_CURVE('', #110, #112, #481, .T.);
#637 = EDGE_CURVE('', #112, #112, #486, .T.);
#638 = EDGE_CURVE('', #114, #114, #491, .T.);
#639 = EDGE_CURVE('', #114, #116, #495, .T.);
#640 = EDGE_CURVE('', #116, #116, #500, .T.);
#641 = EDGE_CURVE('', #118, #118, #505, .T.);
#642 = EDGE_CURVE('', #118, #120, #509, .T.);
#643 = EDGE_CURVE('', #120, #120, #514, .T.);
#644 = EDGE_CURVE('', #122, #122, #519, .T.);
#645 = EDGE_CURVE('', #122, #124, #523, .T.);
#646 = EDGE_CURVE('', #124, #124, #528, .T.);
#647 = EDGE_CURVE('', #126, #126, #533, .T.);
#648 = EDGE_CURVE('', #126, #128, #537, .T.);
#649 = EDGE_CURVE('', #128, #128, #542, .T.);
#650 = EDGE_CURVE('', #130, #130, #547, .T.);
#651 = EDGE_CURVE('', #130, #132, #551, .T.);
#652 = EDGE_CURVE('', #132, #132, #556, .T.);
#653 = CARTESIAN_POINT('', (0, -0, 0.004));
#654 = DIRECTION('', (0, -0, 1));
#655 = DIRECTION('', (1, 0, 0));
#656 = AXIS2_PLACEMENT_3D('', #653, #654, #655);
#657 = CYLINDRICAL_SURFACE('', #656, 0.045);
#658 = CARTESIAN_POINT('', (0, 0, 0));
#659 = DIRECTION('', (0, -0, 1));
#660 = AXIS2_PLACEMENT_3D('', #658, #659, $);
#661 = PLANE('', #660);
#662 = CARTESIAN_POINT('', (0, 0, 0.008));
#663 = DIRECTION('', (0, -0, 1));
#664 = AXIS2_PLACEMENT_3D('', #662, #663, $);
#665 = PLANE('', #664);
#666 = CARTESIAN_POINT('', (0.035, -0, 0.0039995000000000005));
#667 = DIRECTION('', (0, -0, 1));
#668 = DIRECTION('', (1, 0, 0));
#669 = AXIS2_PLACEMENT_3D('', #666, #667, #668);
#670 = CYLINDRICAL_SURFACE('', #669, 0.0025);
#671 = CARTESIAN_POINT('', (0, 0.035, 0.0039995000000000005));
#672 = DIRECTION('', (0, -0, 1));
#673 = DIRECTION('', (0.000000000000000918485099360515, 1, 0));
#674 = AXIS2_PLACEMENT_3D('', #671, #672, #673);
#675 = CYLINDRICAL_SURFACE('', #674, 0.0025);
#676 = CARTESIAN_POINT('', (-0.035, 0.000000000000000005024295867788082, 0.0039995000000000005));
#677 = DIRECTION('', (0, 0, 1));
#678 = DIRECTION('', (-1, -0.00000000000000017274814839420247, 0));
#679 = AXIS2_PLACEMENT_3D('', #676, #677, #678);
#680 = CYLINDRICAL_SURFACE('', #679, 0.0025);
#681 = CARTESIAN_POINT('', (-0.000000000000000014210854715202004, -0.03499999999999999, 0.0039995000000000005));
#682 = DIRECTION('', (-0, -0, 1));
#683 = DIRECTION('', (0.0000000000000029288865879992483, -1, 0));
#684 = AXIS2_PLACEMENT_3D('', #681, #682, #683);
#685 = CYLINDRICAL_SURFACE('', #684, 0.002500000000000007);
#686 = CARTESIAN_POINT('', (0.0000000000000000012560739669470202, 0.00000000000000000125607396694702, 0.038));
#687 = DIRECTION('', (-0, -0, 1));
#688 = DIRECTION('', (1, -0.000000000000000035887827627057714, 0));
#689 = AXIS2_PLACEMENT_3D('', #686, #687, #688);
#690 = CYLINDRICAL_SURFACE('', #689, 0.035);
#691 = CARTESIAN_POINT('', (0, 0, 0.068));
#692 = DIRECTION('', (0, -0, 1));
#693 = AXIS2_PLACEMENT_3D('', #691, #692, $);
#694 = PLANE('', #693);
#695 = CARTESIAN_POINT('', (0, -0, 0.03799949999999999));
#696 = DIRECTION('', (0, -0, 1));
#697 = DIRECTION('', (1, 0, 0));
#698 = AXIS2_PLACEMENT_3D('', #695, #696, #697);
#699 = CYLINDRICAL_SURFACE('', #698, 0.01);
#700 = CARTESIAN_POINT('', (0.09, -0.02, 0.023));
#701 = DIRECTION('', (0, -1, 0));
#702 = AXIS2_PLACEMENT_3D('', #700, #701, $);
#703 = PLANE('', #702);
#704 = CARTESIAN_POINT('', (0.16, 0, 0.023));
#705 = DIRECTION('', (1, -0, 0));
#706 = AXIS2_PLACEMENT_3D('', #704, #705, $);
#707 = PLANE('', #706);
#708 = CARTESIAN_POINT('', (0.09, 0.02, 0.023));
#709 = DIRECTION('', (0, 1, -0));
#710 = AXIS2_PLACEMENT_3D('', #708, #709, $);
#711 = PLANE('', #710);
#712 = CARTESIAN_POINT('', (0.02, 0, 0.023));
#713 = DIRECTION('', (-1, -0, 0));
#714 = AXIS2_PLACEMENT_3D('', #712, #713, $);
#715 = PLANE('', #714);
#716 = CARTESIAN_POINT('', (0, 0, 0.008));
#717 = DIRECTION('', (0, -0, 1));
#718 = AXIS2_PLACEMENT_3D('', #716, #717, $);
#719 = PLANE('', #718);
#720 = CARTESIAN_POINT('', (0, 0, 0.038));
#721 = DIRECTION('', (0, -0, 1));
#722 = AXIS2_PLACEMENT_3D('', #720, #721, $);
#723 = PLANE('', #722);
#724 = CARTESIAN_POINT('', (0.02, 0.0000000000000000012560739669470202, 0.023));
#725 = DIRECTION('', (-0, -0, 1));
#726 = DIRECTION('', (1, -0.000000000000000062803698347351, 0));
#727 = AXIS2_PLACEMENT_3D('', #724, #725, #726);
#728 = CYLINDRICAL_SURFACE('', #727, 0.02);
#729 = CARTESIAN_POINT('', (0, 0, 0.038));
#730 = DIRECTION('', (0, -0, 1));
#731 = AXIS2_PLACEMENT_3D('', #729, #730, $);
#732 = PLANE('', #731);
#733 = CARTESIAN_POINT('', (0.16, -0, 0.023));
#734 = DIRECTION('', (0, -0, 1));
#735 = DIRECTION('', (1, 0, 0));
#736 = AXIS2_PLACEMENT_3D('', #733, #734, #735);
#737 = CYLINDRICAL_SURFACE('', #736, 0.02);
#738 = CARTESIAN_POINT('', (0, 0, 0.008));
#739 = DIRECTION('', (0, -0, 1));
#740 = AXIS2_PLACEMENT_3D('', #738, #739, $);
#741 = PLANE('', #740);
#742 = CARTESIAN_POINT('', (0, 0, 0.038));
#743 = DIRECTION('', (0, -0, 1));
#744 = AXIS2_PLACEMENT_3D('', #742, #743, $);
#745 = PLANE('', #744);
#746 = CARTESIAN_POINT('', (0.09, -0.006, 0.0229995));
#747 = DIRECTION('', (0, -1, 0));
#748 = AXIS2_PLACEMENT_3D('', #746, #747, $);
#749 = PLANE('', #748);
#750 = CARTESIAN_POINT('', (0.15, 0, 0.0229995));
#751 = DIRECTION('', (1, -0, 0));
#752 = AXIS2_PLACEMENT_3D('', #750, #751, $);
#753 = PLANE('', #752);
#754 = CARTESIAN_POINT('', (0.09, 0.006, 0.0229995));
#755 = DIRECTION('', (0, 1, -0));
#756 = AXIS2_PLACEMENT_3D('', #754, #755, $);
#757 = PLANE('', #756);
#758 = CARTESIAN_POINT('', (0.03, 0, 0.0229995));
#759 = DIRECTION('', (-1, -0, 0));
#760 = AXIS2_PLACEMENT_3D('', #758, #759, $);
#761 = PLANE('', #760);
#762 = CARTESIAN_POINT('', (0, 0, 0.007999));
#763 = DIRECTION('', (0, -0, 1));
#764 = AXIS2_PLACEMENT_3D('', #762, #763, $);
#765 = PLANE('', #764);
#766 = CARTESIAN_POINT('', (0, 0, 0.038));
#767 = DIRECTION('', (0, -0, 1));
#768 = AXIS2_PLACEMENT_3D('', #766, #767, $);
#769 = PLANE('', #768);
#770 = CARTESIAN_POINT('', (0.17999999999999997, 0.00000000000000002842170943040401, 0.033));
#771 = DIRECTION('', (-0, -0, 1));
#772 = DIRECTION('', (1, -0.0000000000000009473903143467994, 0));
#773 = AXIS2_PLACEMENT_3D('', #770, #771, #772);
#774 = CYLINDRICAL_SURFACE('', #773, 0.03000000000000003);
#775 = CARTESIAN_POINT('', (0, 0, 0.008));
#776 = DIRECTION('', (0, -0, 1));
#777 = AXIS2_PLACEMENT_3D('', #775, #776, $);
#778 = PLANE('', #777);
#779 = CARTESIAN_POINT('', (0, 0, 0.058));
#780 = DIRECTION('', (0, -0, 1));
#781 = AXIS2_PLACEMENT_3D('', #779, #780, $);
#782 = PLANE('', #781);
#783 = CARTESIAN_POINT('', (0.18, -0.000000000000000010048591735576163, 0.0329995));
#784 = DIRECTION('', (0, -0, 1));
#785 = DIRECTION('', (1, 0.000000000000001116510192841796, 0));
#786 = AXIS2_PLACEMENT_3D('', #783, #784, #785);
#787 = CYLINDRICAL_SURFACE('', #786, 0.009);
#788 = CARTESIAN_POINT('', (0.25, -0.0175, 0.022));
#789 = DIRECTION('', (0, -1, 0));
#790 = AXIS2_PLACEMENT_3D('', #788, #789, $);
#791 = PLANE('', #790);
#792 = CARTESIAN_POINT('', (0.303, 0, 0.022));
#793 = DIRECTION('', (1, -0, 0));
#794 = AXIS2_PLACEMENT_3D('', #792, #793, $);
#795 = PLANE('', #794);
#796 = CARTESIAN_POINT('', (0.25, 0.0175, 0.022));
#797 = DIRECTION('', (0, 1, -0));
#798 = AXIS2_PLACEMENT_3D('', #796, #797, $);
#799 = PLANE('', #798);
#800 = CARTESIAN_POINT('', (0.197, 0, 0.022));
#801 = DIRECTION('', (-1, -0, 0));
#802 = AXIS2_PLACEMENT_3D('', #800, #801, $);
#803 = PLANE('', #802);
#804 = CARTESIAN_POINT('', (0, 0, 0.008));
#805 = DIRECTION('', (0, -0, 1));
#806 = AXIS2_PLACEMENT_3D('', #804, #805, $);
#807 = PLANE('', #806);
#808 = CARTESIAN_POINT('', (0, 0, 0.036));
#809 = DIRECTION('', (0, -0, 1));
#810 = AXIS2_PLACEMENT_3D('', #808, #809, $);
#811 = PLANE('', #810);
#812 = CARTESIAN_POINT('', (0.197, -0.000000000000000020097183471152324, 0.022));
#813 = DIRECTION('', (0, -0, 1));
#814 = DIRECTION('', (1, 0.0000000000000011821872630089601, 0));
#815 = AXIS2_PLACEMENT_3D('', #812, #813, #814);
#816 = CYLINDRICAL_SURFACE('', #815, 0.017);
#817 = CARTESIAN_POINT('', (0, 0, 0.008));
#818 = DIRECTION('', (0, -0, 1));
#819 = AXIS2_PLACEMENT_3D('', #817, #818, $);
#820 = PLANE('', #819);
#821 = CARTESIAN_POINT('', (0, 0, 0.036));
#822 = DIRECTION('', (0, -0, 1));
#823 = AXIS2_PLACEMENT_3D('', #821, #822, $);
#824 = PLANE('', #823);
#825 = CARTESIAN_POINT('', (0.303, -0.00000000000000004019436694230465, 0.022));
#826 = DIRECTION('', (0, -0, 1));
#827 = DIRECTION('', (1, 0.0000000000000023643745260179203, 0));
#828 = AXIS2_PLACEMENT_3D('', #825, #826, #827);
#829 = CYLINDRICAL_SURFACE('', #828, 0.017);
#830 = CARTESIAN_POINT('', (0, 0, 0.008));
#831 = DIRECTION('', (0, -0, 1));
#832 = AXIS2_PLACEMENT_3D('', #830, #831, $);
#833 = PLANE('', #832);
#834 = CARTESIAN_POINT('', (0, 0, 0.036));
#835 = DIRECTION('', (0, -0, 1));
#836 = AXIS2_PLACEMENT_3D('', #834, #835, $);
#837 = PLANE('', #836);
#838 = CARTESIAN_POINT('', (0.297, -0.00000000000000004019436694230465, 0.021999499999999998));
#839 = DIRECTION('', (0, -0, 1));
#840 = DIRECTION('', (1, 0.000000000000008038873388460928, 0));
#841 = AXIS2_PLACEMENT_3D('', #838, #839, #840);
#842 = CYLINDRICAL_SURFACE('', #841, 0.005);
#843 = CARTESIAN_POINT('', (0.303, -0.000000000000000020097183471152324, 0.028));
#844 = DIRECTION('', (0, -0, 1));
#845 = DIRECTION('', (1, 0.0000000000000008038873388460928, 0));
#846 = AXIS2_PLACEMENT_3D('', #843, #844, #845);
#847 = CYLINDRICAL_SURFACE('', #846, 0.025);
#848 = CARTESIAN_POINT('', (0, 0, 0.008));
#849 = DIRECTION('', (0, -0, 1));
#850 = AXIS2_PLACEMENT_3D('', #848, #849, $);
#851 = PLANE('', #850);
#852 = CARTESIAN_POINT('', (0, 0, 0.048));
#853 = DIRECTION('', (0, -0, 1));
#854 = AXIS2_PLACEMENT_3D('', #852, #853, $);
#855 = PLANE('', #854);
#856 = CARTESIAN_POINT('', (0.303, -0.00000000000000004019436694230465, 0.0279995));
#857 = DIRECTION('', (0, -0, 1));
#858 = DIRECTION('', (1, 0.0000000000000050242958677880805, 0));
#859 = AXIS2_PLACEMENT_3D('', #856, #857, #858);
#860 = CYLINDRICAL_SURFACE('', #859, 0.008);
#861 = CARTESIAN_POINT('', (0.303, -0, 0.051));
#862 = DIRECTION('', (0, -0, 1));
#863 = DIRECTION('', (1, 0, 0));
#864 = AXIS2_PLACEMENT_3D('', #861, #862, #863);
#865 = CYLINDRICAL_SURFACE('', #864, 0.0225);
#866 = CARTESIAN_POINT('', (0, 0, 0.054));
#867 = DIRECTION('', (0, -0, 1));
#868 = AXIS2_PLACEMENT_3D('', #866, #867, $);
#869 = PLANE('', #868);
#870 = CARTESIAN_POINT('', (0.318, -0, 0.050999499999999996));
#871 = DIRECTION('', (0, -0, 1));
#872 = DIRECTION('', (1, 0, 0));
#873 = AXIS2_PLACEMENT_3D('', #870, #871, #872);
#874 = CYLINDRICAL_SURFACE('', #873, 0.0015);
#875 = CARTESIAN_POINT('', (0.2955, 0.012990381056766564, 0.050999499999999996));
#876 = DIRECTION('', (0, -0, 1.0000000000000002));
#877 = DIRECTION('', (-0.4999999999999954, 0.8660254037844414, 0));
#878 = AXIS2_PLACEMENT_3D('', #875, #876, #877);
#879 = CYLINDRICAL_SURFACE('', #878, 0.0015000000000000137);
#880 = CARTESIAN_POINT('', (0.29549999999999993, -0.012990381056766552, 0.05099949999999999));
#881 = DIRECTION('', (-0.000000000000005836165009370167, 0.000000000000008839271969352184, 1));
#882 = DIRECTION('', (-0.49999999999996336, -0.8660254037844598, 0.000000000000004736951571734013));
#883 = AXIS2_PLACEMENT_3D('', #880, #881, #882);
#884 = CYLINDRICAL_SURFACE('', #883, 0.0014999999999999961);
#885 = ORIENTED_EDGE('', *, *, #557, .T.);
#886 = ORIENTED_EDGE('', *, *, #559, .F.);
#887 = EDGE_LOOP('', (#885));
#888 = FACE_BOUND('', #887, .T.);
#889 = EDGE_LOOP('', (#886));
#890 = FACE_BOUND('', #889, .T.);
#891 = ADVANCED_FACE('', (#888, #890), #657, .T.);
#892 = ORIENTED_EDGE('', *, *, #557, .F.);
#893 = ORIENTED_EDGE('', *, *, #560, .T.);
#894 = ORIENTED_EDGE('', *, *, #563, .T.);
#895 = ORIENTED_EDGE('', *, *, #566, .T.);
#896 = ORIENTED_EDGE('', *, *, #569, .T.);
#897 = EDGE_LOOP('', (#892));
#898 = FACE_BOUND('', #897, .T.);
#899 = EDGE_LOOP('', (#893));
#900 = FACE_BOUND('', #899, .T.);
#901 = EDGE_LOOP('', (#894));
#902 = FACE_BOUND('', #901, .T.);
#903 = EDGE_LOOP('', (#895));
#904 = FACE_BOUND('', #903, .T.);
#905 = EDGE_LOOP('', (#896));
#906 = FACE_BOUND('', #905, .T.);
#907 = ADVANCED_FACE('', (#898, #900, #902, #904, #906), #661, .F.);
#908 = ORIENTED_EDGE('', *, *, #559, .T.);
#909 = ORIENTED_EDGE('', *, *, #562, .F.);
#910 = ORIENTED_EDGE('', *, *, #565, .F.);
#911 = ORIENTED_EDGE('', *, *, #568, .F.);
#912 = ORIENTED_EDGE('', *, *, #571, .F.);
#913 = ORIENTED_EDGE('', *, *, #572, .F.);
#914 = ORIENTED_EDGE('', *, *, #575, .T.);
#915 = ORIENTED_EDGE('', *, *, #590, .F.);
#916 = EDGE_LOOP('', (#908));
#917 = FACE_BOUND('', #916, .T.);
#918 = EDGE_LOOP('', (#909));
#919 = FACE_BOUND('', #918, .T.);
#920 = EDGE_LOOP('', (#910));
#921 = FACE_BOUND('', #920, .T.);
#922 = EDGE_LOOP('', (#911));
#923 = FACE_BOUND('', #922, .T.);
#924 = EDGE_LOOP('', (#912));
#925 = FACE_BOUND('', #924, .T.);
#926 = EDGE_LOOP('', (#913));
#927 = FACE_BOUND('', #926, .T.);
#928 = EDGE_LOOP('', (#914));
#929 = FACE_BOUND('', #928, .T.);
#930 = EDGE_LOOP('', (#915));
#931 = FACE_BOUND('', #930, .T.);
#932 = ADVANCED_FACE('', (#917, #919, #921, #923, #925, #927, #929, #931), #665, .T.);
#933 = ORIENTED_EDGE('', *, *, #560, .F.);
#934 = ORIENTED_EDGE('', *, *, #562, .T.);
#935 = EDGE_LOOP('', (#933));
#936 = FACE_BOUND('', #935, .T.);
#937 = EDGE_LOOP('', (#934));
#938 = FACE_BOUND('', #937, .T.);
#939 = ADVANCED_FACE('', (#936, #938), #670, .F.);
#940 = ORIENTED_EDGE('', *, *, #563, .F.);
#941 = ORIENTED_EDGE('', *, *, #565, .T.);
#942 = EDGE_LOOP('', (#940));
#943 = FACE_BOUND('', #942, .T.);
#944 = EDGE_LOOP('', (#941));
#945 = FACE_BOUND('', #944, .T.);
#946 = ADVANCED_FACE('', (#943, #945), #675, .F.);
#947 = ORIENTED_EDGE('', *, *, #566, .F.);
#948 = ORIENTED_EDGE('', *, *, #568, .T.);
#949 = EDGE_LOOP('', (#947));
#950 = FACE_BOUND('', #949, .T.);
#951 = EDGE_LOOP('', (#948));
#952 = FACE_BOUND('', #951, .T.);
#953 = ADVANCED_FACE('', (#950, #952), #680, .F.);
#954 = ORIENTED_EDGE('', *, *, #569, .F.);
#955 = ORIENTED_EDGE('', *, *, #571, .T.);
#956 = EDGE_LOOP('', (#954));
#957 = FACE_BOUND('', #956, .T.);
#958 = EDGE_LOOP('', (#955));
#959 = FACE_BOUND('', #958, .T.);
#960 = ADVANCED_FACE('', (#957, #959), #685, .F.);
#961 = ORIENTED_EDGE('', *, *, #572, .T.);
#962 = ORIENTED_EDGE('', *, *, #574, .F.);
#963 = EDGE_LOOP('', (#961));
#964 = FACE_BOUND('', #963, .T.);
#965 = EDGE_LOOP('', (#962));
#966 = FACE_BOUND('', #965, .T.);
#967 = ADVANCED_FACE('', (#964, #966), #690, .T.);
#968 = ORIENTED_EDGE('', *, *, #574, .T.);
#969 = ORIENTED_EDGE('', *, *, #577, .F.);
#970 = EDGE_LOOP('', (#968));
#971 = FACE_BOUND('', #970, .T.);
#972 = EDGE_LOOP('', (#969));
#973 = FACE_BOUND('', #972, .T.);
#974 = ADVANCED_FACE('', (#971, #973), #694, .T.);
#975 = ORIENTED_EDGE('', *, *, #575, .F.);
#976 = ORIENTED_EDGE('', *, *, #577, .T.);
#977 = EDGE_LOOP('', (#975));
#978 = FACE_BOUND('', #977, .T.);
#979 = EDGE_LOOP('', (#976));
#980 = FACE_BOUND('', #979, .T.);
#981 = ADVANCED_FACE('', (#978, #980), #699, .F.);
#982 = ORIENTED_EDGE('', *, *, #578, .T.);
#983 = ORIENTED_EDGE('', *, *, #579, .T.);
#984 = ORIENTED_EDGE('', *, *, #580, .F.);
#985 = ORIENTED_EDGE('', *, *, #581, .F.);
#986 = EDGE_LOOP('', (#982, #983, #984, #985));
#987 = FACE_BOUND('', #986, .T.);
#988 = ADVANCED_FACE('', (#987), #703, .T.);
#989 = ORIENTED_EDGE('', *, *, #582, .T.);
#990 = ORIENTED_EDGE('', *, *, #583, .T.);
#991 = ORIENTED_EDGE('', *, *, #584, .F.);
#992 = ORIENTED_EDGE('', *, *, #579, .F.);
#993 = EDGE_LOOP('', (#989, #990, #991, #992));
#994 = FACE_BOUND('', #993, .T.);
#995 = ADVANCED_FACE('', (#994), #707, .T.);
#996 = ORIENTED_EDGE('', *, *, #585, .T.);
#997 = ORIENTED_EDGE('', *, *, #586, .T.);
#998 = ORIENTED_EDGE('', *, *, #587, .F.);
#999 = ORIENTED_EDGE('', *, *, #583, .F.);
#1000 = EDGE_LOOP('', (#996, #997, #998, #999));
#1001 = FACE_BOUND('', #1000, .T.);
#1002 = ADVANCED_FACE('', (#1001), #711, .T.);
#1003 = ORIENTED_EDGE('', *, *, #588, .T.);
#1004 = ORIENTED_EDGE('', *, *, #581, .T.);
#1005 = ORIENTED_EDGE('', *, *, #589, .F.);
#1006 = ORIENTED_EDGE('', *, *, #586, .F.);
#1007 = EDGE_LOOP('', (#1003, #1004, #1005, #1006));
#1008 = FACE_BOUND('', #1007, .T.);
#1009 = ADVANCED_FACE('', (#1008), #715, .T.);
#1010 = ORIENTED_EDGE('', *, *, #588, .F.);
#1011 = ORIENTED_EDGE('', *, *, #585, .F.);
#1012 = ORIENTED_EDGE('', *, *, #582, .F.);
#1013 = ORIENTED_EDGE('', *, *, #578, .F.);
#1014 = EDGE_LOOP('', (#1010, #1011, #1012, #1013));
#1015 = FACE_BOUND('', #1014, .T.);
#1016 = ADVANCED_FACE('', (#1015), #719, .F.);
#1017 = ORIENTED_EDGE('', *, *, #580, .T.);
#1018 = ORIENTED_EDGE('', *, *, #584, .T.);
#1019 = ORIENTED_EDGE('', *, *, #587, .T.);
#1020 = ORIENTED_EDGE('', *, *, #589, .T.);
#1021 = EDGE_LOOP('', (#1017, #1018, #1019, #1020));
#1022 = FACE_BOUND('', #1021, .T.);
#1023 = ADVANCED_FACE('', (#1022), #723, .T.);
#1024 = ORIENTED_EDGE('', *, *, #590, .T.);
#1025 = ORIENTED_EDGE('', *, *, #592, .F.);
#1026 = EDGE_LOOP('', (#1024));
#1027 = FACE_BOUND('', #1026, .T.);
#1028 = EDGE_LOOP('', (#1025));
#1029 = FACE_BOUND('', #1028, .T.);
#1030 = ADVANCED_FACE('', (#1027, #1029), #728, .T.);
#1031 = ORIENTED_EDGE('', *, *, #592, .T.);
#1032 = EDGE_LOOP('', (#1031));
#1033 = FACE_BOUND('', #1032, .T.);
#1034 = ADVANCED_FACE('', (#1033), #732, .T.);
#1035 = ORIENTED_EDGE('', *, *, #593, .T.);
#1036 = ORIENTED_EDGE('', *, *, #595, .F.);
#1037 = EDGE_LOOP('', (#1035));
#1038 = FACE_BOUND('', #1037, .T.);
#1039 = EDGE_LOOP('', (#1036));
#1040 = FACE_BOUND('', #1039, .T.);
#1041 = ADVANCED_FACE('', (#1038, #1040), #737, .T.);
#1042 = ORIENTED_EDGE('', *, *, #593, .F.);
#1043 = EDGE_LOOP('', (#1042));
#1044 = FACE_BOUND('', #1043, .T.);
#1045 = ADVANCED_FACE('', (#1044), #741, .F.);
#1046 = ORIENTED_EDGE('', *, *, #595, .T.);
#1047 = EDGE_LOOP('', (#1046));
#1048 = FACE_BOUND('', #1047, .T.);
#1049 = ADVANCED_FACE('', (#1048), #745, .T.);
#1050 = ORIENTED_EDGE('', *, *, #596, .T.);
#1051 = ORIENTED_EDGE('', *, *, #597, .T.);
#1052 = ORIENTED_EDGE('', *, *, #598, .F.);
#1053 = ORIENTED_EDGE('', *, *, #599, .F.);
#1054 = EDGE_LOOP('', (#1050, #1051, #1052, #1053));
#1055 = FACE_BOUND('', #1054, .T.);
#1056 = ADVANCED_FACE('', (#1055), #749, .T.);
#1057 = ORIENTED_EDGE('', *, *, #600, .T.);
#1058 = ORIENTED_EDGE('', *, *, #601, .T.);
#1059 = ORIENTED_EDGE('', *, *, #602, .F.);
#1060 = ORIENTED_EDGE('', *, *, #597, .F.);
#1061 = EDGE_LOOP('', (#1057, #1058, #1059, #1060));
#1062 = FACE_BOUND('', #1061, .T.);
#1063 = ADVANCED_FACE('', (#1062), #753, .T.);
#1064 = ORIENTED_EDGE('', *, *, #603, .T.);
#1065 = ORIENTED_EDGE('', *, *, #604, .T.);
#1066 = ORIENTED_EDGE('', *, *, #605, .F.);
#1067 = ORIENTED_EDGE('', *, *, #601, .F.);
#1068 = EDGE_LOOP('', (#1064, #1065, #1066, #1067));
#1069 = FACE_BOUND('', #1068, .T.);
#1070 = ADVANCED_FACE('', (#1069), #757, .T.);
#1071 = ORIENTED_EDGE('', *, *, #606, .T.);
#1072 = ORIENTED_EDGE('', *, *, #599, .T.);
#1073 = ORIENTED_EDGE('', *, *, #607, .F.);
#1074 = ORIENTED_EDGE('', *, *, #604, .F.);
#1075 = EDGE_LOOP('', (#1071, #1072, #1073, #1074));
#1076 = FACE_BOUND('', #1075, .T.);
#1077 = ADVANCED_FACE('', (#1076), #761, .T.);
#1078 = ORIENTED_EDGE('', *, *, #606, .F.);
#1079 = ORIENTED_EDGE('', *, *, #603, .F.);
#1080 = ORIENTED_EDGE('', *, *, #600, .F.);
#1081 = ORIENTED_EDGE('', *, *, #596, .F.);
#1082 = EDGE_LOOP('', (#1078, #1079, #1080, #1081));
#1083 = FACE_BOUND('', #1082, .T.);
#1084 = ADVANCED_FACE('', (#1083), #765, .F.);
#1085 = ORIENTED_EDGE('', *, *, #598, .T.);
#1086 = ORIENTED_EDGE('', *, *, #602, .T.);
#1087 = ORIENTED_EDGE('', *, *, #605, .T.);
#1088 = ORIENTED_EDGE('', *, *, #607, .T.);
#1089 = EDGE_LOOP('', (#1085, #1086, #1087, #1088));
#1090 = FACE_BOUND('', #1089, .T.);
#1091 = ADVANCED_FACE('', (#1090), #769, .T.);
#1092 = ORIENTED_EDGE('', *, *, #608, .T.);
#1093 = ORIENTED_EDGE('', *, *, #610, .F.);
#1094 = EDGE_LOOP('', (#1092));
#1095 = FACE_BOUND('', #1094, .T.);
#1096 = EDGE_LOOP('', (#1093));
#1097 = FACE_BOUND('', #1096, .T.);
#1098 = ADVANCED_FACE('', (#1095, #1097), #774, .T.);
#1099 = ORIENTED_EDGE('', *, *, #608, .F.);
#1100 = ORIENTED_EDGE('', *, *, #611, .T.);
#1101 = EDGE_LOOP('', (#1099));
#1102 = FACE_BOUND('', #1101, .T.);
#1103 = EDGE_LOOP('', (#1100));
#1104 = FACE_BOUND('', #1103, .T.);
#1105 = ADVANCED_FACE('', (#1102, #1104), #778, .F.);
#1106 = ORIENTED_EDGE('', *, *, #610, .T.);
#1107 = ORIENTED_EDGE('', *, *, #613, .F.);
#1108 = EDGE_LOOP('', (#1106));
#1109 = FACE_BOUND('', #1108, .T.);
#1110 = EDGE_LOOP('', (#1107));
#1111 = FACE_BOUND('', #1110, .T.);
#1112 = ADVANCED_FACE('', (#1109, #1111), #782, .T.);
#1113 = ORIENTED_EDGE('', *, *, #611, .F.);
#1114 = ORIENTED_EDGE('', *, *, #613, .T.);
#1115 = EDGE_LOOP('', (#1113));
#1116 = FACE_BOUND('', #1115, .T.);
#1117 = EDGE_LOOP('', (#1114));
#1118 = FACE_BOUND('', #1117, .T.);
#1119 = ADVANCED_FACE('', (#1116, #1118), #787, .F.);
#1120 = ORIENTED_EDGE('', *, *, #614, .T.);
#1121 = ORIENTED_EDGE('', *, *, #615, .T.);
#1122 = ORIENTED_EDGE('', *, *, #616, .F.);
#1123 = ORIENTED_EDGE('', *, *, #617, .F.);
#1124 = EDGE_LOOP('', (#1120, #1121, #1122, #1123));
#1125 = FACE_BOUND('', #1124, .T.);
#1126 = ADVANCED_FACE('', (#1125), #791, .T.);
#1127 = ORIENTED_EDGE('', *, *, #618, .T.);
#1128 = ORIENTED_EDGE('', *, *, #619, .T.);
#1129 = ORIENTED_EDGE('', *, *, #620, .F.);
#1130 = ORIENTED_EDGE('', *, *, #615, .F.);
#1131 = EDGE_LOOP('', (#1127, #1128, #1129, #1130));
#1132 = FACE_BOUND('', #1131, .T.);
#1133 = ADVANCED_FACE('', (#1132), #795, .T.);
#1134 = ORIENTED_EDGE('', *, *, #621, .T.);
#1135 = ORIENTED_EDGE('', *, *, #622, .T.);
#1136 = ORIENTED_EDGE('', *, *, #623, .F.);
#1137 = ORIENTED_EDGE('', *, *, #619, .F.);
#1138 = EDGE_LOOP('', (#1134, #1135, #1136, #1137));
#1139 = FACE_BOUND('', #1138, .T.);
#1140 = ADVANCED_FACE('', (#1139), #799, .T.);
#1141 = ORIENTED_EDGE('', *, *, #624, .T.);
#1142 = ORIENTED_EDGE('', *, *, #617, .T.);
#1143 = ORIENTED_EDGE('', *, *, #625, .F.);
#1144 = ORIENTED_EDGE('', *, *, #622, .F.);
#1145 = EDGE_LOOP('', (#1141, #1142, #1143, #1144));
#1146 = FACE_BOUND('', #1145, .T.);
#1147 = ADVANCED_FACE('', (#1146), #803, .T.);
#1148 = ORIENTED_EDGE('', *, *, #624, .F.);
#1149 = ORIENTED_EDGE('', *, *, #621, .F.);
#1150 = ORIENTED_EDGE('', *, *, #618, .F.);
#1151 = ORIENTED_EDGE('', *, *, #614, .F.);
#1152 = EDGE_LOOP('', (#1148, #1149, #1150, #1151));
#1153 = FACE_BOUND('', #1152, .T.);
#1154 = ADVANCED_FACE('', (#1153), #807, .F.);
#1155 = ORIENTED_EDGE('', *, *, #616, .T.);
#1156 = ORIENTED_EDGE('', *, *, #620, .T.);
#1157 = ORIENTED_EDGE('', *, *, #623, .T.);
#1158 = ORIENTED_EDGE('', *, *, #625, .T.);
#1159 = EDGE_LOOP('', (#1155, #1156, #1157, #1158));
#1160 = FACE_BOUND('', #1159, .T.);
#1161 = ADVANCED_FACE('', (#1160), #811, .T.);
#1162 = ORIENTED_EDGE('', *, *, #626, .T.);
#1163 = ORIENTED_EDGE('', *, *, #628, .F.);
#1164 = EDGE_LOOP('', (#1162));
#1165 = FACE_BOUND('', #1164, .T.);
#1166 = EDGE_LOOP('', (#1163));
#1167 = FACE_BOUND('', #1166, .T.);
#1168 = ADVANCED_FACE('', (#1165, #1167), #816, .T.);
#1169 = ORIENTED_EDGE('', *, *, #626, .F.);
#1170 = EDGE_LOOP('', (#1169));
#1171 = FACE_BOUND('', #1170, .T.);
#1172 = ADVANCED_FACE('', (#1171), #820, .F.);
#1173 = ORIENTED_EDGE('', *, *, #628, .T.);
#1174 = EDGE_LOOP('', (#1173));
#1175 = FACE_BOUND('', #1174, .T.);
#1176 = ADVANCED_FACE('', (#1175), #824, .T.);
#1177 = ORIENTED_EDGE('', *, *, #629, .T.);
#1178 = ORIENTED_EDGE('', *, *, #631, .F.);
#1179 = EDGE_LOOP('', (#1177));
#1180 = FACE_BOUND('', #1179, .T.);
#1181 = EDGE_LOOP('', (#1178));
#1182 = FACE_BOUND('', #1181, .T.);
#1183 = ADVANCED_FACE('', (#1180, #1182), #829, .T.);
#1184 = ORIENTED_EDGE('', *, *, #629, .F.);
#1185 = ORIENTED_EDGE('', *, *, #632, .T.);
#1186 = EDGE_LOOP('', (#1184));
#1187 = FACE_BOUND('', #1186, .T.);
#1188 = EDGE_LOOP('', (#1185));
#1189 = FACE_BOUND('', #1188, .T.);
#1190 = ADVANCED_FACE('', (#1187, #1189), #833, .F.);
#1191 = ORIENTED_EDGE('', *, *, #631, .T.);
#1192 = ORIENTED_EDGE('', *, *, #634, .F.);
#1193 = EDGE_LOOP('', (#1191));
#1194 = FACE_BOUND('', #1193, .T.);
#1195 = EDGE_LOOP('', (#1192));
#1196 = FACE_BOUND('', #1195, .T.);
#1197 = ADVANCED_FACE('', (#1194, #1196), #837, .T.);
#1198 = ORIENTED_EDGE('', *, *, #632, .F.);
#1199 = ORIENTED_EDGE('', *, *, #634, .T.);
#1200 = EDGE_LOOP('', (#1198));
#1201 = FACE_BOUND('', #1200, .T.);
#1202 = EDGE_LOOP('', (#1199));
#1203 = FACE_BOUND('', #1202, .T.);
#1204 = ADVANCED_FACE('', (#1201, #1203), #842, .F.);
#1205 = ORIENTED_EDGE('', *, *, #635, .T.);
#1206 = ORIENTED_EDGE('', *, *, #637, .F.);
#1207 = EDGE_LOOP('', (#1205));
#1208 = FACE_BOUND('', #1207, .T.);
#1209 = EDGE_LOOP('', (#1206));
#1210 = FACE_BOUND('', #1209, .T.);
#1211 = ADVANCED_FACE('', (#1208, #1210), #847, .T.);
#1212 = ORIENTED_EDGE('', *, *, #635, .F.);
#1213 = ORIENTED_EDGE('', *, *, #638, .T.);
#1214 = EDGE_LOOP('', (#1212));
#1215 = FACE_BOUND('', #1214, .T.);
#1216 = EDGE_LOOP('', (#1213));
#1217 = FACE_BOUND('', #1216, .T.);
#1218 = ADVANCED_FACE('', (#1215, #1217), #851, .F.);
#1219 = ORIENTED_EDGE('', *, *, #637, .T.);
#1220 = ORIENTED_EDGE('', *, *, #640, .F.);
#1221 = ORIENTED_EDGE('', *, *, #641, .F.);
#1222 = ORIENTED_EDGE('', *, *, #644, .T.);
#1223 = ORIENTED_EDGE('', *, *, #647, .T.);
#1224 = ORIENTED_EDGE('', *, *, #650, .T.);
#1225 = EDGE_LOOP('', (#1219));
#1226 = FACE_BOUND('', #1225, .T.);
#1227 = EDGE_LOOP('', (#1220));
#1228 = FACE_BOUND('', #1227, .T.);
#1229 = EDGE_LOOP('', (#1221));
#1230 = FACE_BOUND('', #1229, .T.);
#1231 = EDGE_LOOP('', (#1222));
#1232 = FACE_BOUND('', #1231, .T.);
#1233 = EDGE_LOOP('', (#1223));
#1234 = FACE_BOUND('', #1233, .T.);
#1235 = EDGE_LOOP('', (#1224));
#1236 = FACE_BOUND('', #1235, .T.);
#1237 = ADVANCED_FACE('', (#1226, #1228, #1230, #1232, #1234, #1236), #855, .T.);
#1238 = ORIENTED_EDGE('', *, *, #638, .F.);
#1239 = ORIENTED_EDGE('', *, *, #640, .T.);
#1240 = EDGE_LOOP('', (#1238));
#1241 = FACE_BOUND('', #1240, .T.);
#1242 = EDGE_LOOP('', (#1239));
#1243 = FACE_BOUND('', #1242, .T.);
#1244 = ADVANCED_FACE('', (#1241, #1243), #860, .F.);
#1245 = ORIENTED_EDGE('', *, *, #641, .T.);
#1246 = ORIENTED_EDGE('', *, *, #643, .F.);
#1247 = EDGE_LOOP('', (#1245));
#1248 = FACE_BOUND('', #1247, .T.);
#1249 = EDGE_LOOP('', (#1246));
#1250 = FACE_BOUND('', #1249, .T.);
#1251 = ADVANCED_FACE('', (#1248, #1250), #865, .T.);
#1252 = ORIENTED_EDGE('', *, *, #643, .T.);
#1253 = ORIENTED_EDGE('', *, *, #646, .F.);
#1254 = ORIENTED_EDGE('', *, *, #649, .F.);
#1255 = ORIENTED_EDGE('', *, *, #652, .F.);
#1256 = EDGE_LOOP('', (#1252));
#1257 = FACE_BOUND('', #1256, .T.);
#1258 = EDGE_LOOP('', (#1253));
#1259 = FACE_BOUND('', #1258, .T.);
#1260 = EDGE_LOOP('', (#1254));
#1261 = FACE_BOUND('', #1260, .T.);
#1262 = EDGE_LOOP('', (#1255));
#1263 = FACE_BOUND('', #1262, .T.);
#1264 = ADVANCED_FACE('', (#1257, #1259, #1261, #1263), #869, .T.);
#1265 = ORIENTED_EDGE('', *, *, #644, .F.);
#1266 = ORIENTED_EDGE('', *, *, #646, .T.);
#1267 = EDGE_LOOP('', (#1265));
#1268 = FACE_BOUND('', #1267, .T.);
#1269 = EDGE_LOOP('', (#1266));
#1270 = FACE_BOUND('', #1269, .T.);
#1271 = ADVANCED_FACE('', (#1268, #1270), #874, .F.);
#1272 = ORIENTED_EDGE('', *, *, #647, .F.);
#1273 = ORIENTED_EDGE('', *, *, #649, .T.);
#1274 = EDGE_LOOP('', (#1272));
#1275 = FACE_BOUND('', #1274, .T.);
#1276 = EDGE_LOOP('', (#1273));
#1277 = FACE_BOUND('', #1276, .T.);
#1278 = ADVANCED_FACE('', (#1275, #1277), #879, .F.);
#1279 = ORIENTED_EDGE('', *, *, #650, .F.);
#1280 = ORIENTED_EDGE('', *, *, #652, .T.);
#1281 = EDGE_LOOP('', (#1279));
#1282 = FACE_BOUND('', #1281, .T.);
#1283 = EDGE_LOOP('', (#1280));
#1284 = FACE_BOUND('', #1283, .T.);
#1285 = ADVANCED_FACE('', (#1282, #1284), #884, .F.);
#1286 = CLOSED_SHELL('', (#891, #907, #932, #939, #946, #953, #960, #967, #974, #981, #988, #995, #1002, #1009, #1016, #1023, #1030, #1034, #1041, #1045, #1049, #1056, #1063, #1070, #1077, #1084, #1091, #1098, #1105, #1112, #1119, #1126, #1133, #1140, #1147, #1154, #1161, #1168, #1172, #1176, #1183, #1190, #1197, #1204, #1211, #1218, #1237, #1244, #1251, #1264, #1271, #1278, #1285));
#1287 = MANIFOLD_SOLID_BREP('', #1286);
#1288 = APPLICATION_CONTEXT('configuration controlled 3D design of mechanical parts and assemblies');
#1289 = PRODUCT_DEFINITION_CONTEXT('part definition', #1288, 'design');
#1290 = PRODUCT('UNIDENTIFIED_PRODUCT', '', $, ());
#1291 = PRODUCT_DEFINITION_FORMATION('', $, #1290);
#1292 = PRODUCT_DEFINITION('design', $, #1291, #1289);
#1293 = PRODUCT_DEFINITION_SHAPE('', $, #1292);
#1294 = ADVANCED_BREP_SHAPE_REPRESENTATION('', (#1287), #4);
#1295 = SHAPE_DEFINITION_REPRESENTATION(#1293, #1294);
#1296 = COLOUR_RGB('', 0.8999999761581421, 0.8999999761581421, 0.8999999761581421);
#1297 = FILL_AREA_STYLE_COLOUR('', #1296);
#1298 = FILL_AREA_STYLE('', (#1297));
#1299 = SURFACE_STYLE_FILL_AREA(#1298);
#1300 = SURFACE_SIDE_STYLE('', (#1299));
#1301 = SURFACE_STYLE_USAGE(.BOTH., #1300);
#1302 = PRESENTATION_STYLE_ASSIGNMENT((#1301));
#1303 = STYLED_ITEM('', (#1302), #1287);
#1304 = MECHANICAL_DESIGN_GEOMETRIC_PRESENTATION_REPRESENTATION('', (#1303), #4);
ENDSEC;
END-ISO-10303-21;

