ISO-10303-21;
HEADER;
FILE_DESCRIPTION(('Zoo Text-to-CAD'),'1');
FILE_NAME('dump.step', '2026-02-03T23:16:47.845232335+00:00', ('Author unknown'), ('Organization unknown'), 'zoo.dev beta', 'zoo.dev', 'Authorization unknown');
FILE_SCHEMA(('AP203_CONFIGURATION_CONTROLLED_3D_DESIGN_OF_MECHANICAL_PARTS_AND_ASSEMBLIES_MIM_LF'));
ENDSEC;
DATA;
#1 = (
  LENGTH_UNIT()
  NAMED_UNIT(*)
  SI_UNIT($, .METRE.)
);
#2 = (
  NAMED_UNIT(*)
  PLANE_ANGLE_UNIT()
  SI_UNIT($, .RADIAN.)
);
#3 = UNCERTAINTY_MEASURE_WITH_UNIT(LENGTH_MEASURE(0.00001), #1, 'DISTANCE_ACCURACY_VALUE', $);
#4 = (
  GEOMETRIC_REPRESENTATION_CONTEXT(3)
  GLOBAL_UNCERTAINTY_ASSIGNED_CONTEXT((#3))
  GLOBAL_UNIT_ASSIGNED_CONTEXT((#1, #2))
  REPRESENTATION_CONTEXT('', '3D')
);
#5 = CARTESIAN_POINT('', (-0.28, -0.26, 0));
#6 = VERTEX_POINT('', #5);
#7 = CARTESIAN_POINT('', (0.28, -0.26, 0));
#8 = VERTEX_POINT('', #7);
#9 = CARTESIAN_POINT('', (0.28, -0.26, 0.08));
#10 = VERTEX_POINT('', #9);
#11 = CARTESIAN_POINT('', (-0.28, -0.26, 0.08));
#12 = VERTEX_POINT('', #11);
#13 = CARTESIAN_POINT('', (0.31, -0.23, 0));
#14 = VERTEX_POINT('', #13);
#15 = CARTESIAN_POINT('', (0.31, -0.23, 0.08));
#16 = VERTEX_POINT('', #15);
#17 = CARTESIAN_POINT('', (0.31, 0.23, 0));
#18 = VERTEX_POINT('', #17);
#19 = CARTESIAN_POINT('', (0.31, 0.23, 0.08));
#20 = VERTEX_POINT('', #19);
#21 = CARTESIAN_POINT('', (0.28, 0.26, 0));
#22 = VERTEX_POINT('', #21);
#23 = CARTESIAN_POINT('', (0.28, 0.26, 0.08));
#24 = VERTEX_POINT('', #23);
#25 = CARTESIAN_POINT('', (-0.28, 0.26, 0));
#26 = VERTEX_POINT('', #25);
#27 = CARTESIAN_POINT('', (-0.28, 0.26, 0.08));
#28 = VERTEX_POINT('', #27);
#29 = CARTESIAN_POINT('', (-0.31, 0.23, 0));
#30 = VERTEX_POINT('', #29);
#31 = CARTESIAN_POINT('', (-0.31, 0.23, 0.08));
#32 = VERTEX_POINT('', #31);
#33 = CARTESIAN_POINT('', (-0.31, -0.23, 0));
#34 = VERTEX_POINT('', #33);
#35 = CARTESIAN_POINT('', (-0.31, -0.23, 0.08));
#36 = VERTEX_POINT('', #35);
#37 = CARTESIAN_POINT('', (-0.2375, -0.2375, 0.073999));
#38 = VERTEX_POINT('', #37);
#39 = CARTESIAN_POINT('', (0.2375, -0.2375, 0.073999));
#40 = VERTEX_POINT('', #39);
#41 = CARTESIAN_POINT('', (0.2375, -0.2375, 0.08));
#42 = VERTEX_POINT('', #41);
#43 = CARTESIAN_POINT('', (-0.2375, -0.2375, 0.08));
#44 = VERTEX_POINT('', #43);
#45 = CARTESIAN_POINT('', (0.2375, 0.2375, 0.073999));
#46 = VERTEX_POINT('', #45);
#47 = CARTESIAN_POINT('', (0.2375, 0.2375, 0.08));
#48 = VERTEX_POINT('', #47);
#49 = CARTESIAN_POINT('', (-0.2375, 0.2375, 0.073999));
#50 = VERTEX_POINT('', #49);
#51 = CARTESIAN_POINT('', (-0.2375, 0.2375, 0.08));
#52 = VERTEX_POINT('', #51);
#53 = CARTESIAN_POINT('', (-0.1925, 0.19, 0.059999));
#54 = VERTEX_POINT('', #53);
#55 = CARTESIAN_POINT('', (-0.1925, 0.19, 0.08));
#56 = VERTEX_POINT('', #55);
#57 = CARTESIAN_POINT('', (0.28, 0.19, 0.059999));
#58 = VERTEX_POINT('', #57);
#59 = CARTESIAN_POINT('', (0.28, 0.19, 0.08));
#60 = VERTEX_POINT('', #59);
#61 = CARTESIAN_POINT('', (-0.28, -0.257, 0.003));
#62 = VERTEX_POINT('', #61);
#63 = CARTESIAN_POINT('', (0.28, -0.257, 0.003));
#64 = VERTEX_POINT('', #63);
#65 = CARTESIAN_POINT('', (0.28, -0.257, 0.077));
#66 = VERTEX_POINT('', #65);
#67 = CARTESIAN_POINT('', (-0.28, -0.257, 0.077));
#68 = VERTEX_POINT('', #67);
#69 = CARTESIAN_POINT('', (0.307, -0.23, 0.003));
#70 = VERTEX_POINT('', #69);
#71 = CARTESIAN_POINT('', (0.307, -0.23, 0.077));
#72 = VERTEX_POINT('', #71);
#73 = CARTESIAN_POINT('', (0.307, 0.23, 0.003));
#74 = VERTEX_POINT('', #73);
#75 = CARTESIAN_POINT('', (0.307, 0.23, 0.077));
#76 = VERTEX_POINT('', #75);
#77 = CARTESIAN_POINT('', (0.28, 0.257, 0.003));
#78 = VERTEX_POINT('', #77);
#79 = CARTESIAN_POINT('', (0.28, 0.257, 0.077));
#80 = VERTEX_POINT('', #79);
#81 = CARTESIAN_POINT('', (-0.28, 0.257, 0.003));
#82 = VERTEX_POINT('', #81);
#83 = CARTESIAN_POINT('', (-0.28, 0.257, 0.077));
#84 = VERTEX_POINT('', #83);
#85 = CARTESIAN_POINT('', (-0.307, 0.23, 0.003));
#86 = VERTEX_POINT('', #85);
#87 = CARTESIAN_POINT('', (-0.307, 0.23, 0.077));
#88 = VERTEX_POINT('', #87);
#89 = CARTESIAN_POINT('', (-0.307, -0.23, 0.003));
#90 = VERTEX_POINT('', #89);
#91 = CARTESIAN_POINT('', (-0.307, -0.23, 0.077));
#92 = VERTEX_POINT('', #91);
#93 = CARTESIAN_POINT('', (-0.2405, -0.2405, 0.07099899999999999));
#94 = VERTEX_POINT('', #93);
#95 = CARTESIAN_POINT('', (0.2405, -0.2405, 0.07099899999999999));
#96 = VERTEX_POINT('', #95);
#97 = CARTESIAN_POINT('', (0.2405, -0.2405, 0.077));
#98 = VERTEX_POINT('', #97);
#99 = CARTESIAN_POINT('', (-0.2405, -0.2405, 0.077));
#100 = VERTEX_POINT('', #99);
#101 = CARTESIAN_POINT('', (0.2405, 0.2405, 0.07099899999999999));
#102 = VERTEX_POINT('', #101);
#103 = CARTESIAN_POINT('', (0.2405, 0.2405, 0.077));
#104 = VERTEX_POINT('', #103);
#105 = CARTESIAN_POINT('', (-0.2405, 0.2405, 0.07099899999999999));
#106 = VERTEX_POINT('', #105);
#107 = CARTESIAN_POINT('', (-0.2405, 0.2405, 0.077));
#108 = VERTEX_POINT('', #107);
#109 = CARTESIAN_POINT('', (-0.1955, 0.19, 0.062999));
#110 = VERTEX_POINT('', #109);
#111 = CARTESIAN_POINT('', (-0.1955, 0.19, 0.077));
#112 = VERTEX_POINT('', #111);
#113 = CARTESIAN_POINT('', (0.283, 0.19, 0.056998999999999994));
#114 = VERTEX_POINT('', #113);
#115 = CARTESIAN_POINT('', (0.283, 0.19, 0.077));
#116 = VERTEX_POINT('', #115);
#117 = CARTESIAN_POINT('', (-0.2875, 0.19, 0.059999));
#118 = VERTEX_POINT('', #117);
#119 = CARTESIAN_POINT('', (-0.2875, 0.19, 0.08));
#120 = VERTEX_POINT('', #119);
#121 = CARTESIAN_POINT('', (0.2, 0.19, 0.059999));
#122 = VERTEX_POINT('', #121);
#123 = CARTESIAN_POINT('', (0.2, 0.19, 0.08));
#124 = VERTEX_POINT('', #123);
#125 = CARTESIAN_POINT('', (-0.28449999999999986, 0.19, 0.062999));
#126 = VERTEX_POINT('', #125);
#127 = CARTESIAN_POINT('', (-0.28449999999999986, 0.19, 0.077));
#128 = VERTEX_POINT('', #127);
#129 = CARTESIAN_POINT('', (0.197, 0.19, 0.056998999999999994));
#130 = VERTEX_POINT('', #129);
#131 = CARTESIAN_POINT('', (0.197, 0.19, 0.077));
#132 = VERTEX_POINT('', #131);
#133 = CARTESIAN_POINT('', (-0.26, 0.26, 0.02));
#134 = VERTEX_POINT('', #133);
#135 = CARTESIAN_POINT('', (-0.18, 0.26, 0.02));
#136 = VERTEX_POINT('', #135);
#137 = CARTESIAN_POINT('', (-0.18, 0.26, 0.06));
#138 = VERTEX_POINT('', #137);
#139 = CARTESIAN_POINT('', (-0.26, 0.26, 0.06));
#140 = VERTEX_POINT('', #139);
#141 = CARTESIAN_POINT('', (-0.18, 0.257, 0.02));
#142 = VERTEX_POINT('', #141);
#143 = CARTESIAN_POINT('', (-0.26, 0.257, 0.02));
#144 = VERTEX_POINT('', #143);
#145 = CARTESIAN_POINT('', (-0.18, 0.257, 0.06));
#146 = VERTEX_POINT('', #145);
#147 = CARTESIAN_POINT('', (-0.2600000000000114, 0.257, 0.06));
#148 = VERTEX_POINT('', #147);
#149 = CARTESIAN_POINT('', (0.285, 0.19, 0.08));
#150 = VERTEX_POINT('', #149);
#151 = CARTESIAN_POINT('', (0.285, 0.19, 0.09));
#152 = VERTEX_POINT('', #151);
#153 = DIRECTION('', (1, -0, 0));
#154 = VECTOR('', #153, 1);
#155 = CARTESIAN_POINT('', (-0.28, -0.26, 0));
#156 = LINE('', #155, #154);
#157 = DIRECTION('', (0, -0, 1));
#158 = VECTOR('', #157, 1);
#159 = CARTESIAN_POINT('', (0.28, -0.26, 0));
#160 = LINE('', #159, #158);
#161 = DIRECTION('', (1, -0, 0));
#162 = VECTOR('', #161, 1);
#163 = CARTESIAN_POINT('', (-0.28, -0.26, 0.08));
#164 = LINE('', #163, #162);
#165 = DIRECTION('', (0, -0, 1));
#166 = VECTOR('', #165, 1);
#167 = CARTESIAN_POINT('', (-0.28, -0.26, 0));
#168 = LINE('', #167, #166);
#169 = DIRECTION('', (0.0000000000000018947806286936005, -1, 0));
#170 = DIRECTION('', (-0, -0, 1));
#171 = CARTESIAN_POINT('', (0.2799999999999999, -0.23, 0));
#172 = AXIS2_PLACEMENT_3D('', #171, #170, #169);
#173 = CIRCLE('', #172, 0.03);
#174 = DIRECTION('', (0, -0, 1));
#175 = VECTOR('', #174, 1);
#176 = CARTESIAN_POINT('', (0.31, -0.23, 0));
#177 = LINE('', #176, #175);
#178 = DIRECTION('', (0.0000000000000018947806286936005, -1, 0));
#179 = DIRECTION('', (-0, -0, 1));
#180 = CARTESIAN_POINT('', (0.2799999999999999, -0.23, 0.08));
#181 = AXIS2_PLACEMENT_3D('', #180, #179, #178);
#182 = CIRCLE('', #181, 0.03);
#183 = DIRECTION('', (0, 1, 0));
#184 = VECTOR('', #183, 1);
#185 = CARTESIAN_POINT('', (0.31, -0.23, 0));
#186 = LINE('', #185, #184);
#187 = DIRECTION('', (0, -0, 1));
#188 = VECTOR('', #187, 1);
#189 = CARTESIAN_POINT('', (0.31, 0.23, 0));
#190 = LINE('', #189, #188);
#191 = DIRECTION('', (0, 1, 0));
#192 = VECTOR('', #191, 1);
#193 = CARTESIAN_POINT('', (0.31, -0.23, 0.08));
#194 = LINE('', #193, #192);
#195 = DIRECTION('', (1, 0, 0));
#196 = DIRECTION('', (0, -0, 1));
#197 = CARTESIAN_POINT('', (0.2799999999999999, 0.23, 0));
#198 = AXIS2_PLACEMENT_3D('', #197, #196, #195);
#199 = CIRCLE('', #198, 0.030000000000000058);
#200 = DIRECTION('', (0, -0, 1));
#201 = VECTOR('', #200, 1);
#202 = CARTESIAN_POINT('', (0.28, 0.26, 0));
#203 = LINE('', #202, #201);
#204 = DIRECTION('', (1, 0, 0));
#205 = DIRECTION('', (0, -0, 1));
#206 = CARTESIAN_POINT('', (0.2799999999999999, 0.23, 0.08));
#207 = AXIS2_PLACEMENT_3D('', #206, #205, #204);
#208 = CIRCLE('', #207, 0.030000000000000058);
#209 = DIRECTION('', (-1, -0, 0));
#210 = VECTOR('', #209, 1);
#211 = CARTESIAN_POINT('', (0.28, 0.26, 0));
#212 = LINE('', #211, #210);
#213 = DIRECTION('', (0, -0, 1));
#214 = VECTOR('', #213, 1);
#215 = CARTESIAN_POINT('', (-0.28, 0.26, 0));
#216 = LINE('', #215, #214);
#217 = DIRECTION('', (-1, -0, 0));
#218 = VECTOR('', #217, 1);
#219 = CARTESIAN_POINT('', (0.28, 0.26, 0.08));
#220 = LINE('', #219, #218);
#221 = DIRECTION('', (-0.0000000000000018947806286936005, 1, 0));
#222 = DIRECTION('', (0, -0, 1));
#223 = CARTESIAN_POINT('', (-0.2799999999999999, 0.23, 0));
#224 = AXIS2_PLACEMENT_3D('', #223, #222, #221);
#225 = CIRCLE('', #224, 0.03);
#226 = DIRECTION('', (0, -0, 1));
#227 = VECTOR('', #226, 1);
#228 = CARTESIAN_POINT('', (-0.31, 0.23, 0));
#229 = LINE('', #228, #227);
#230 = DIRECTION('', (-0.0000000000000018947806286936005, 1, 0));
#231 = DIRECTION('', (0, -0, 1));
#232 = CARTESIAN_POINT('', (-0.2799999999999999, 0.23, 0.08));
#233 = AXIS2_PLACEMENT_3D('', #232, #231, #230);
#234 = CIRCLE('', #233, 0.03);
#235 = DIRECTION('', (0, -1, 0));
#236 = VECTOR('', #235, 1);
#237 = CARTESIAN_POINT('', (-0.31, 0.23, 0));
#238 = LINE('', #237, #236);
#239 = DIRECTION('', (0, -0, 1));
#240 = VECTOR('', #239, 1);
#241 = CARTESIAN_POINT('', (-0.31, -0.23, 0));
#242 = LINE('', #241, #240);
#243 = DIRECTION('', (0, -1, 0));
#244 = VECTOR('', #243, 1);
#245 = CARTESIAN_POINT('', (-0.31, 0.23, 0.08));
#246 = LINE('', #245, #244);
#247 = DIRECTION('', (-1, 0, 0));
#248 = DIRECTION('', (0, 0, 1));
#249 = CARTESIAN_POINT('', (-0.2799999999999999, -0.23, 0));
#250 = AXIS2_PLACEMENT_3D('', #249, #248, #247);
#251 = CIRCLE('', #250, 0.030000000000000058);
#252 = DIRECTION('', (-1, 0, 0));
#253 = DIRECTION('', (0, 0, 1));
#254 = CARTESIAN_POINT('', (-0.2799999999999999, -0.23, 0.08));
#255 = AXIS2_PLACEMENT_3D('', #254, #253, #252);
#256 = CIRCLE('', #255, 0.030000000000000058);
#257 = DIRECTION('', (1, -0, 0));
#258 = VECTOR('', #257, 1);
#259 = CARTESIAN_POINT('', (-0.2375, -0.2375, 0.073999));
#260 = LINE('', #259, #258);
#261 = DIRECTION('', (0, -0, 1));
#262 = VECTOR('', #261, 1);
#263 = CARTESIAN_POINT('', (0.2375, -0.2375, 0.073999));
#264 = LINE('', #263, #262);
#265 = DIRECTION('', (1, -0, 0));
#266 = VECTOR('', #265, 1);
#267 = CARTESIAN_POINT('', (-0.2375, -0.2375, 0.08));
#268 = LINE('', #267, #266);
#269 = DIRECTION('', (0, -0, 1));
#270 = VECTOR('', #269, 1);
#271 = CARTESIAN_POINT('', (-0.2375, -0.2375, 0.073999));
#272 = LINE('', #271, #270);
#273 = DIRECTION('', (0, 1, 0));
#274 = VECTOR('', #273, 1);
#275 = CARTESIAN_POINT('', (0.2375, -0.2375, 0.073999));
#276 = LINE('', #275, #274);
#277 = DIRECTION('', (0, -0, 1));
#278 = VECTOR('', #277, 1);
#279 = CARTESIAN_POINT('', (0.2375, 0.2375, 0.073999));
#280 = LINE('', #279, #278);
#281 = DIRECTION('', (0, 1, 0));
#282 = VECTOR('', #281, 1);
#283 = CARTESIAN_POINT('', (0.2375, -0.2375, 0.08));
#284 = LINE('', #283, #282);
#285 = DIRECTION('', (-1, -0, 0));
#286 = VECTOR('', #285, 1);
#287 = CARTESIAN_POINT('', (0.2375, 0.2375, 0.073999));
#288 = LINE('', #287, #286);
#289 = DIRECTION('', (0, -0, 1));
#290 = VECTOR('', #289, 1);
#291 = CARTESIAN_POINT('', (-0.2375, 0.2375, 0.073999));
#292 = LINE('', #291, #290);
#293 = DIRECTION('', (-1, -0, 0));
#294 = VECTOR('', #293, 1);
#295 = CARTESIAN_POINT('', (0.2375, 0.2375, 0.08));
#296 = LINE('', #295, #294);
#297 = DIRECTION('', (0, -1, 0));
#298 = VECTOR('', #297, 1);
#299 = CARTESIAN_POINT('', (-0.2375, 0.2375, 0.073999));
#300 = LINE('', #299, #298);
#301 = DIRECTION('', (0, -1, 0));
#302 = VECTOR('', #301, 1);
#303 = CARTESIAN_POINT('', (-0.2375, 0.2375, 0.08));
#304 = LINE('', #303, #302);
#305 = DIRECTION('', (1, 0, 0));
#306 = DIRECTION('', (0, -0, 1));
#307 = CARTESIAN_POINT('', (-0.23999999999999994, 0.19, 0.059999));
#308 = AXIS2_PLACEMENT_3D('', #307, #306, #305);
#309 = CIRCLE('', #308, 0.047499999999999945);
#310 = DIRECTION('', (0, -0, 1));
#311 = VECTOR('', #310, 1);
#312 = CARTESIAN_POINT('', (-0.1925, 0.19, 0.059999));
#313 = LINE('', #312, #311);
#314 = DIRECTION('', (1, 0, 0));
#315 = DIRECTION('', (0, -0, 1));
#316 = CARTESIAN_POINT('', (-0.23999999999999994, 0.19, 0.08));
#317 = AXIS2_PLACEMENT_3D('', #316, #315, #314);
#318 = CIRCLE('', #317, 0.047499999999999945);
#319 = DIRECTION('', (1, 0, 0));
#320 = DIRECTION('', (0, -0, 1));
#321 = CARTESIAN_POINT('', (0.24, 0.19, 0.059999));
#322 = AXIS2_PLACEMENT_3D('', #321, #320, #319);
#323 = CIRCLE('', #322, 0.04);
#324 = DIRECTION('', (0, -0, 1));
#325 = VECTOR('', #324, 1);
#326 = CARTESIAN_POINT('', (0.28, 0.19, 0.059999));
#327 = LINE('', #326, #325);
#328 = DIRECTION('', (1, 0, 0));
#329 = DIRECTION('', (0, -0, 1));
#330 = CARTESIAN_POINT('', (0.24, 0.19, 0.08));
#331 = AXIS2_PLACEMENT_3D('', #330, #329, #328);
#332 = CIRCLE('', #331, 0.04);
#333 = DIRECTION('', (1, -0, 0));
#334 = VECTOR('', #333, 1);
#335 = CARTESIAN_POINT('', (-0.28, -0.257, 0.003));
#336 = LINE('', #335, #334);
#337 = DIRECTION('', (0, -0, 1));
#338 = VECTOR('', #337, 1);
#339 = CARTESIAN_POINT('', (0.28, -0.257, 0.003));
#340 = LINE('', #339, #338);
#341 = DIRECTION('', (1, -0, 0));
#342 = VECTOR('', #341, 1);
#343 = CARTESIAN_POINT('', (-0.28, -0.257, 0.077));
#344 = LINE('', #343, #342);
#345 = DIRECTION('', (0, -0, 1));
#346 = VECTOR('', #345, 1);
#347 = CARTESIAN_POINT('', (-0.28, -0.257, 0.003));
#348 = LINE('', #347, #346);
#349 = DIRECTION('', (0.000000000000008421247238638172, -1, 0));
#350 = DIRECTION('', (-0, -0, 1));
#351 = CARTESIAN_POINT('', (0.27999999999999975, -0.22999999999999982, 0.003));
#352 = AXIS2_PLACEMENT_3D('', #351, #350, #349);
#353 = CIRCLE('', #352, 0.02700000000000017);
#354 = DIRECTION('', (0, -0, 1));
#355 = VECTOR('', #354, 1);
#356 = CARTESIAN_POINT('', (0.307, -0.23, 0.003));
#357 = LINE('', #356, #355);
#358 = DIRECTION('', (0.000000000000008421247238638172, -1, 0));
#359 = DIRECTION('', (-0, -0, 1));
#360 = CARTESIAN_POINT('', (0.27999999999999975, -0.22999999999999982, 0.077));
#361 = AXIS2_PLACEMENT_3D('', #360, #359, #358);
#362 = CIRCLE('', #361, 0.02700000000000017);
#363 = DIRECTION('', (0, 1, 0));
#364 = VECTOR('', #363, 1);
#365 = CARTESIAN_POINT('', (0.307, -0.23, 0.003));
#366 = LINE('', #365, #364);
#367 = DIRECTION('', (0, -0, 1));
#368 = VECTOR('', #367, 1);
#369 = CARTESIAN_POINT('', (0.307, 0.23, 0.003));
#370 = LINE('', #369, #368);
#371 = DIRECTION('', (0, 1, 0));
#372 = VECTOR('', #371, 1);
#373 = CARTESIAN_POINT('', (0.307, -0.23, 0.077));
#374 = LINE('', #373, #372);
#375 = DIRECTION('', (1, -0.000000000000002105311809659565, 0));
#376 = DIRECTION('', (-0, -0, 1));
#377 = CARTESIAN_POINT('', (0.28000000000000014, 0.23000000000000007, 0.003));
#378 = AXIS2_PLACEMENT_3D('', #377, #376, #375);
#379 = CIRCLE('', #378, 0.026999999999999885);
#380 = DIRECTION('', (0, -0, 1));
#381 = VECTOR('', #380, 1);
#382 = CARTESIAN_POINT('', (0.28, 0.257, 0.003));
#383 = LINE('', #382, #381);
#384 = DIRECTION('', (1, -0.000000000000002105311809659565, 0));
#385 = DIRECTION('', (-0, -0, 1));
#386 = CARTESIAN_POINT('', (0.28000000000000014, 0.23000000000000007, 0.077));
#387 = AXIS2_PLACEMENT_3D('', #386, #385, #384);
#388 = CIRCLE('', #387, 0.026999999999999885);
#389 = DIRECTION('', (-1, -0, 0));
#390 = VECTOR('', #389, 1);
#391 = CARTESIAN_POINT('', (0.28, 0.257, 0.003));
#392 = LINE('', #391, #390);
#393 = DIRECTION('', (0, -0, 1));
#394 = VECTOR('', #393, 1);
#395 = CARTESIAN_POINT('', (-0.28, 0.257, 0.003));
#396 = LINE('', #395, #394);
#397 = DIRECTION('', (-1, -0, 0));
#398 = VECTOR('', #397, 1);
#399 = CARTESIAN_POINT('', (0.28, 0.257, 0.077));
#400 = LINE('', #399, #398);
#401 = DIRECTION('', (-0.000000000000008421247238638172, 1, 0));
#402 = DIRECTION('', (0, -0, 1));
#403 = CARTESIAN_POINT('', (-0.27999999999999975, 0.22999999999999982, 0.003));
#404 = AXIS2_PLACEMENT_3D('', #403, #402, #401);
#405 = CIRCLE('', #404, 0.02700000000000017);
#406 = DIRECTION('', (0, -0, 1));
#407 = VECTOR('', #406, 1);
#408 = CARTESIAN_POINT('', (-0.307, 0.23, 0.003));
#409 = LINE('', #408, #407);
#410 = DIRECTION('', (-0.000000000000008421247238638172, 1, 0));
#411 = DIRECTION('', (0, -0, 1));
#412 = CARTESIAN_POINT('', (-0.27999999999999975, 0.22999999999999982, 0.077));
#413 = AXIS2_PLACEMENT_3D('', #412, #411, #410);
#414 = CIRCLE('', #413, 0.02700000000000017);
#415 = DIRECTION('', (0, -1, 0));
#416 = VECTOR('', #415, 1);
#417 = CARTESIAN_POINT('', (-0.307, 0.23, 0.003));
#418 = LINE('', #417, #416);
#419 = DIRECTION('', (0, -0, 1));
#420 = VECTOR('', #419, 1);
#421 = CARTESIAN_POINT('', (-0.307, -0.23, 0.003));
#422 = LINE('', #421, #420);
#423 = DIRECTION('', (0, -1, 0));
#424 = VECTOR('', #423, 1);
#425 = CARTESIAN_POINT('', (-0.307, 0.23, 0.077));
#426 = LINE('', #425, #424);
#427 = DIRECTION('', (-1, 0.000000000000002105311809659565, 0));
#428 = DIRECTION('', (0, -0, 1));
#429 = CARTESIAN_POINT('', (-0.28000000000000014, -0.23000000000000007, 0.003));
#430 = AXIS2_PLACEMENT_3D('', #429, #428, #427);
#431 = CIRCLE('', #430, 0.026999999999999885);
#432 = DIRECTION('', (-1, 0.000000000000002105311809659565, 0));
#433 = DIRECTION('', (0, -0, 1));
#434 = CARTESIAN_POINT('', (-0.28000000000000014, -0.23000000000000007, 0.077));
#435 = AXIS2_PLACEMENT_3D('', #434, #433, #432);
#436 = CIRCLE('', #435, 0.026999999999999885);
#437 = DIRECTION('', (1, -0, 0));
#438 = VECTOR('', #437, 1);
#439 = CARTESIAN_POINT('', (-0.2405, -0.2405, 0.07099899999999999));
#440 = LINE('', #439, #438);
#441 = DIRECTION('', (0, -0, 1));
#442 = VECTOR('', #441, 1);
#443 = CARTESIAN_POINT('', (0.2405, -0.2405, 0.07099899999999999));
#444 = LINE('', #443, #442);
#445 = DIRECTION('', (1, -0, 0));
#446 = VECTOR('', #445, 1);
#447 = CARTESIAN_POINT('', (-0.2405, -0.2405, 0.077));
#448 = LINE('', #447, #446);
#449 = DIRECTION('', (0, -0, 1));
#450 = VECTOR('', #449, 1);
#451 = CARTESIAN_POINT('', (-0.2405, -0.2405, 0.07099899999999999));
#452 = LINE('', #451, #450);
#453 = DIRECTION('', (0, 1, 0));
#454 = VECTOR('', #453, 1);
#455 = CARTESIAN_POINT('', (0.2405, -0.2405, 0.07099899999999999));
#456 = LINE('', #455, #454);
#457 = DIRECTION('', (0, -0, 1));
#458 = VECTOR('', #457, 1);
#459 = CARTESIAN_POINT('', (0.2405, 0.2405, 0.07099899999999999));
#460 = LINE('', #459, #458);
#461 = DIRECTION('', (0, 1, 0));
#462 = VECTOR('', #461, 1);
#463 = CARTESIAN_POINT('', (0.2405, -0.2405, 0.077));
#464 = LINE('', #463, #462);
#465 = DIRECTION('', (-1, -0, 0));
#466 = VECTOR('', #465, 1);
#467 = CARTESIAN_POINT('', (0.2405, 0.2405, 0.07099899999999999));
#468 = LINE('', #467, #466);
#469 = DIRECTION('', (0, -0, 1));
#470 = VECTOR('', #469, 1);
#471 = CARTESIAN_POINT('', (-0.2405, 0.2405, 0.07099899999999999));
#472 = LINE('', #471, #470);
#473 = DIRECTION('', (-1, -0, 0));
#474 = VECTOR('', #473, 1);
#475 = CARTESIAN_POINT('', (0.2405, 0.2405, 0.077));
#476 = LINE('', #475, #474);
#477 = DIRECTION('', (0, -1, 0));
#478 = VECTOR('', #477, 1);
#479 = CARTESIAN_POINT('', (-0.2405, 0.2405, 0.07099899999999999));
#480 = LINE('', #479, #478);
#481 = DIRECTION('', (0, -1, 0));
#482 = VECTOR('', #481, 1);
#483 = CARTESIAN_POINT('', (-0.2405, 0.2405, 0.077));
#484 = LINE('', #483, #482);
#485 = DIRECTION('', (1, 0, 0));
#486 = DIRECTION('', (0, -0, 1));
#487 = CARTESIAN_POINT('', (-0.23999999999999994, 0.19, 0.062999));
#488 = AXIS2_PLACEMENT_3D('', #487, #486, #485);
#489 = CIRCLE('', #488, 0.04449999999999994);
#490 = DIRECTION('', (0, -0, 1));
#491 = VECTOR('', #490, 1);
#492 = CARTESIAN_POINT('', (-0.1955, 0.19, 0.062999));
#493 = LINE('', #492, #491);
#494 = DIRECTION('', (1, 0, 0));
#495 = DIRECTION('', (0, -0, 1));
#496 = CARTESIAN_POINT('', (-0.23999999999999994, 0.19, 0.077));
#497 = AXIS2_PLACEMENT_3D('', #496, #495, #494);
#498 = CIRCLE('', #497, 0.04449999999999994);
#499 = DIRECTION('', (1, 0, 0));
#500 = DIRECTION('', (0, -0, 1));
#501 = CARTESIAN_POINT('', (0.24, 0.19, 0.056998999999999994));
#502 = AXIS2_PLACEMENT_3D('', #501, #500, #499);
#503 = CIRCLE('', #502, 0.043);
#504 = DIRECTION('', (0, -0, 1));
#505 = VECTOR('', #504, 1);
#506 = CARTESIAN_POINT('', (0.283, 0.19, 0.056998999999999994));
#507 = LINE('', #506, #505);
#508 = DIRECTION('', (1, 0, 0));
#509 = DIRECTION('', (0, -0, 1));
#510 = CARTESIAN_POINT('', (0.24, 0.19, 0.077));
#511 = AXIS2_PLACEMENT_3D('', #510, #509, #508);
#512 = CIRCLE('', #511, 0.043);
#513 = DIRECTION('', (-1, 0.0000000000000011967035549643792, 0));
#514 = DIRECTION('', (0, -0, 1));
#515 = CARTESIAN_POINT('', (-0.24, 0.18999999999999995, 0.059999));
#516 = AXIS2_PLACEMENT_3D('', #515, #514, #513);
#517 = CIRCLE('', #516, 0.0475);
#518 = DIRECTION('', (-1, 0.0000000000000011967035549643792, 0));
#519 = DIRECTION('', (0, -0, 1));
#520 = CARTESIAN_POINT('', (-0.24, 0.18999999999999995, 0.08));
#521 = AXIS2_PLACEMENT_3D('', #520, #519, #518);
#522 = CIRCLE('', #521, 0.0475);
#523 = DIRECTION('', (0, -0, 1));
#524 = VECTOR('', #523, 1);
#525 = CARTESIAN_POINT('', (-0.2875, 0.19, 0.059999));
#526 = LINE('', #525, #524);
#527 = DIRECTION('', (-1, 0, 0));
#528 = DIRECTION('', (0, 0, 1));
#529 = CARTESIAN_POINT('', (0.24, 0.19, 0.059999));
#530 = AXIS2_PLACEMENT_3D('', #529, #528, #527);
#531 = CIRCLE('', #530, 0.04);
#532 = DIRECTION('', (-1, 0, 0));
#533 = DIRECTION('', (0, 0, 1));
#534 = CARTESIAN_POINT('', (0.24, 0.19, 0.08));
#535 = AXIS2_PLACEMENT_3D('', #534, #533, #532);
#536 = CIRCLE('', #535, 0.04);
#537 = DIRECTION('', (0, -0, 1));
#538 = VECTOR('', #537, 1);
#539 = CARTESIAN_POINT('', (0.2, 0.19, 0.059999));
#540 = LINE('', #539, #538);
#541 = DIRECTION('', (-1, 0.000000000000000638690099559641, 0));
#542 = DIRECTION('', (0, -0, 1));
#543 = CARTESIAN_POINT('', (-0.2399999999999999, 0.18999999999999997, 0.062999));
#544 = AXIS2_PLACEMENT_3D('', #543, #542, #541);
#545 = CIRCLE('', #544, 0.04449999999999997);
#546 = DIRECTION('', (-1, 0.000000000000000638690099559641, 0));
#547 = DIRECTION('', (0, -0, 1));
#548 = CARTESIAN_POINT('', (-0.2399999999999999, 0.18999999999999997, 0.077));
#549 = AXIS2_PLACEMENT_3D('', #548, #547, #546);
#550 = CIRCLE('', #549, 0.04449999999999997);
#551 = DIRECTION('', (0, -0, 1));
#552 = VECTOR('', #551, 1);
#553 = CARTESIAN_POINT('', (-0.28449999999999986, 0.19, 0.062999));
#554 = LINE('', #553, #552);
#555 = DIRECTION('', (-1, 0, 0));
#556 = DIRECTION('', (0, 0, 1));
#557 = CARTESIAN_POINT('', (0.24, 0.19, 0.056998999999999994));
#558 = AXIS2_PLACEMENT_3D('', #557, #556, #555);
#559 = CIRCLE('', #558, 0.043);
#560 = DIRECTION('', (-1, 0, 0));
#561 = DIRECTION('', (0, 0, 1));
#562 = CARTESIAN_POINT('', (0.24, 0.19, 0.077));
#563 = AXIS2_PLACEMENT_3D('', #562, #561, #560);
#564 = CIRCLE('', #563, 0.043);
#565 = DIRECTION('', (0, -0, 1));
#566 = VECTOR('', #565, 1);
#567 = CARTESIAN_POINT('', (0.197, 0.19, 0.056998999999999994));
#568 = LINE('', #567, #566);
#569 = DIRECTION('', (1, -0, 0));
#570 = VECTOR('', #569, 1);
#571 = CARTESIAN_POINT('', (-0.26, 0.26, 0.02));
#572 = LINE('', #571, #570);
#573 = DIRECTION('', (0, -1, 0));
#574 = VECTOR('', #573, 1);
#575 = CARTESIAN_POINT('', (-0.18, 0.26, 0.02));
#576 = LINE('', #575, #574);
#577 = DIRECTION('', (0, -1, 0));
#578 = VECTOR('', #577, 1);
#579 = CARTESIAN_POINT('', (-0.26, 0.26, 0.02));
#580 = LINE('', #579, #578);
#581 = DIRECTION('', (0, -0, 1));
#582 = VECTOR('', #581, 1);
#583 = CARTESIAN_POINT('', (-0.18, 0.26, 0.02));
#584 = LINE('', #583, #582);
#585 = DIRECTION('', (0, -1, 0));
#586 = VECTOR('', #585, 1);
#587 = CARTESIAN_POINT('', (-0.18, 0.26, 0.06));
#588 = LINE('', #587, #586);
#589 = DIRECTION('', (-1, -0, 0));
#590 = VECTOR('', #589, 1);
#591 = CARTESIAN_POINT('', (-0.18, 0.26, 0.06));
#592 = LINE('', #591, #590);
#593 = DIRECTION('', (0, -1, 0));
#594 = VECTOR('', #593, 1);
#595 = CARTESIAN_POINT('', (-0.26, 0.26, 0.06));
#596 = LINE('', #595, #594);
#597 = DIRECTION('', (0, -0, -1));
#598 = VECTOR('', #597, 1);
#599 = CARTESIAN_POINT('', (-0.26, 0.26, 0.06));
#600 = LINE('', #599, #598);
#601 = DIRECTION('', (-1, -0, 0));
#602 = VECTOR('', #601, 1);
#603 = CARTESIAN_POINT('', (-0.18, 0.257, 0.02));
#604 = LINE('', #603, #602);
#605 = DIRECTION('', (0, -0, -1));
#606 = VECTOR('', #605, 1);
#607 = CARTESIAN_POINT('', (-0.18, 0.257, 0.06));
#608 = LINE('', #607, #606);
#609 = DIRECTION('', (1, -0, 0));
#610 = VECTOR('', #609, 1);
#611 = CARTESIAN_POINT('', (-0.2600000000000114, 0.257, 0.06));
#612 = LINE('', #611, #610);
#613 = DIRECTION('', (0, -0, 1));
#614 = VECTOR('', #613, 1);
#615 = CARTESIAN_POINT('', (-0.26, 0.257, 0.020000000000013642));
#616 = LINE('', #615, #614);
#617 = DIRECTION('', (1, 0, 0));
#618 = DIRECTION('', (0, -0, 1));
#619 = CARTESIAN_POINT('', (0.24, 0.19, 0.08));
#620 = AXIS2_PLACEMENT_3D('', #619, #618, #617);
#621 = CIRCLE('', #620, 0.045);
#622 = DIRECTION('', (0, -0, 1));
#623 = VECTOR('', #622, 1);
#624 = CARTESIAN_POINT('', (0.285, 0.19, 0.08));
#625 = LINE('', #624, #623);
#626 = DIRECTION('', (1, 0, 0));
#627 = DIRECTION('', (0, -0, 1));
#628 = CARTESIAN_POINT('', (0.24, 0.19, 0.09));
#629 = AXIS2_PLACEMENT_3D('', #628, #627, #626);
#630 = CIRCLE('', #629, 0.045);
#631 = EDGE_CURVE('', #6, #8, #156, .T.);
#632 = EDGE_CURVE('', #8, #10, #160, .T.);
#633 = EDGE_CURVE('', #12, #10, #164, .T.);
#634 = EDGE_CURVE('', #6, #12, #168, .T.);
#635 = EDGE_CURVE('', #8, #14, #173, .T.);
#636 = EDGE_CURVE('', #14, #16, #177, .T.);
#637 = EDGE_CURVE('', #10, #16, #182, .T.);
#638 = EDGE_CURVE('', #14, #18, #186, .T.);
#639 = EDGE_CURVE('', #18, #20, #190, .T.);
#640 = EDGE_CURVE('', #16, #20, #194, .T.);
#641 = EDGE_CURVE('', #18, #22, #199, .T.);
#642 = EDGE_CURVE('', #22, #24, #203, .T.);
#643 = EDGE_CURVE('', #20, #24, #208, .T.);
#644 = EDGE_CURVE('', #22, #26, #212, .T.);
#645 = EDGE_CURVE('', #26, #28, #216, .T.);
#646 = EDGE_CURVE('', #24, #28, #220, .T.);
#647 = EDGE_CURVE('', #26, #30, #225, .T.);
#648 = EDGE_CURVE('', #30, #32, #229, .T.);
#649 = EDGE_CURVE('', #28, #32, #234, .T.);
#650 = EDGE_CURVE('', #30, #34, #238, .T.);
#651 = EDGE_CURVE('', #34, #36, #242, .T.);
#652 = EDGE_CURVE('', #32, #36, #246, .T.);
#653 = EDGE_CURVE('', #34, #6, #251, .T.);
#654 = EDGE_CURVE('', #36, #12, #256, .T.);
#655 = EDGE_CURVE('', #38, #40, #260, .T.);
#656 = EDGE_CURVE('', #40, #42, #264, .T.);
#657 = EDGE_CURVE('', #44, #42, #268, .T.);
#658 = EDGE_CURVE('', #38, #44, #272, .T.);
#659 = EDGE_CURVE('', #40, #46, #276, .T.);
#660 = EDGE_CURVE('', #46, #48, #280, .T.);
#661 = EDGE_CURVE('', #42, #48, #284, .T.);
#662 = EDGE_CURVE('', #46, #50, #288, .T.);
#663 = EDGE_CURVE('', #50, #52, #292, .T.);
#664 = EDGE_CURVE('', #48, #52, #296, .T.);
#665 = EDGE_CURVE('', #50, #38, #300, .T.);
#666 = EDGE_CURVE('', #52, #44, #304, .T.);
#667 = EDGE_CURVE('', #54, #118, #309, .T.);
#668 = EDGE_CURVE('', #54, #56, #313, .T.);
#669 = EDGE_CURVE('', #56, #120, #318, .T.);
#670 = EDGE_CURVE('', #58, #122, #323, .T.);
#671 = EDGE_CURVE('', #58, #60, #327, .T.);
#672 = EDGE_CURVE('', #60, #124, #332, .T.);
#673 = EDGE_CURVE('', #62, #64, #336, .T.);
#674 = EDGE_CURVE('', #64, #66, #340, .T.);
#675 = EDGE_CURVE('', #68, #66, #344, .T.);
#676 = EDGE_CURVE('', #62, #68, #348, .T.);
#677 = EDGE_CURVE('', #64, #70, #353, .T.);
#678 = EDGE_CURVE('', #70, #72, #357, .T.);
#679 = EDGE_CURVE('', #66, #72, #362, .T.);
#680 = EDGE_CURVE('', #70, #74, #366, .T.);
#681 = EDGE_CURVE('', #74, #76, #370, .T.);
#682 = EDGE_CURVE('', #72, #76, #374, .T.);
#683 = EDGE_CURVE('', #74, #78, #379, .T.);
#684 = EDGE_CURVE('', #78, #80, #383, .T.);
#685 = EDGE_CURVE('', #76, #80, #388, .T.);
#686 = EDGE_CURVE('', #78, #82, #392, .T.);
#687 = EDGE_CURVE('', #82, #84, #396, .T.);
#688 = EDGE_CURVE('', #80, #84, #400, .T.);
#689 = EDGE_CURVE('', #82, #86, #405, .T.);
#690 = EDGE_CURVE('', #86, #88, #409, .T.);
#691 = EDGE_CURVE('', #84, #88, #414, .T.);
#692 = EDGE_CURVE('', #86, #90, #418, .T.);
#693 = EDGE_CURVE('', #90, #92, #422, .T.);
#694 = EDGE_CURVE('', #88, #92, #426, .T.);
#695 = EDGE_CURVE('', #90, #62, #431, .T.);
#696 = EDGE_CURVE('', #92, #68, #436, .T.);
#697 = EDGE_CURVE('', #94, #96, #440, .T.);
#698 = EDGE_CURVE('', #96, #98, #444, .T.);
#699 = EDGE_CURVE('', #100, #98, #448, .T.);
#700 = EDGE_CURVE('', #94, #100, #452, .T.);
#701 = EDGE_CURVE('', #96, #102, #456, .T.);
#702 = EDGE_CURVE('', #102, #104, #460, .T.);
#703 = EDGE_CURVE('', #98, #104, #464, .T.);
#704 = EDGE_CURVE('', #102, #106, #468, .T.);
#705 = EDGE_CURVE('', #106, #108, #472, .T.);
#706 = EDGE_CURVE('', #104, #108, #476, .T.);
#707 = EDGE_CURVE('', #106, #94, #480, .T.);
#708 = EDGE_CURVE('', #108, #100, #484, .T.);
#709 = EDGE_CURVE('', #110, #126, #489, .T.);
#710 = EDGE_CURVE('', #110, #112, #493, .T.);
#711 = EDGE_CURVE('', #112, #128, #498, .T.);
#712 = EDGE_CURVE('', #114, #130, #503, .T.);
#713 = EDGE_CURVE('', #114, #116, #507, .T.);
#714 = EDGE_CURVE('', #116, #132, #512, .T.);
#715 = EDGE_CURVE('', #118, #54, #517, .T.);
#716 = EDGE_CURVE('', #120, #56, #522, .T.);
#717 = EDGE_CURVE('', #118, #120, #526, .T.);
#718 = EDGE_CURVE('', #122, #58, #531, .T.);
#719 = EDGE_CURVE('', #124, #60, #536, .T.);
#720 = EDGE_CURVE('', #122, #124, #540, .T.);
#721 = EDGE_CURVE('', #126, #110, #545, .T.);
#722 = EDGE_CURVE('', #128, #112, #550, .T.);
#723 = EDGE_CURVE('', #126, #128, #554, .T.);
#724 = EDGE_CURVE('', #130, #114, #559, .T.);
#725 = EDGE_CURVE('', #132, #116, #564, .T.);
#726 = EDGE_CURVE('', #130, #132, #568, .T.);
#727 = EDGE_CURVE('', #134, #136, #572, .T.);
#728 = EDGE_CURVE('', #136, #142, #576, .T.);
#729 = EDGE_CURVE('', #134, #144, #580, .T.);
#730 = EDGE_CURVE('', #136, #138, #584, .T.);
#731 = EDGE_CURVE('', #138, #146, #588, .T.);
#732 = EDGE_CURVE('', #138, #140, #592, .T.);
#733 = EDGE_CURVE('', #140, #148, #596, .T.);
#734 = EDGE_CURVE('', #140, #134, #600, .T.);
#735 = EDGE_CURVE('', #142, #144, #604, .T.);
#736 = EDGE_CURVE('', #146, #142, #608, .T.);
#737 = EDGE_CURVE('', #148, #146, #612, .T.);
#738 = EDGE_CURVE('', #144, #148, #616, .T.);
#739 = EDGE_CURVE('', #150, #150, #621, .T.);
#740 = EDGE_CURVE('', #150, #152, #625, .T.);
#741 = EDGE_CURVE('', #152, #152, #630, .T.);
#742 = CARTESIAN_POINT('', (0, -0.26, 0.04));
#743 = DIRECTION('', (0, -1, 0));
#744 = AXIS2_PLACEMENT_3D('', #742, #743, $);
#745 = PLANE('', #744);
#746 = CARTESIAN_POINT('', (0.2799999999999999, -0.23, 0.04));
#747 = DIRECTION('', (-0, -0, 1));
#748 = DIRECTION('', (0.0000000000000018947806286936005, -1, 0));
#749 = AXIS2_PLACEMENT_3D('', #746, #747, #748);
#750 = CYLINDRICAL_SURFACE('', #749, 0.03);
#751 = CARTESIAN_POINT('', (0.31, 0, 0.04));
#752 = DIRECTION('', (1, -0, 0));
#753 = AXIS2_PLACEMENT_3D('', #751, #752, $);
#754 = PLANE('', #753);
#755 = CARTESIAN_POINT('', (0.2799999999999999, 0.23, 0.04));
#756 = DIRECTION('', (0, -0, 1));
#757 = DIRECTION('', (1, 0, 0));
#758 = AXIS2_PLACEMENT_3D('', #755, #756, #757);
#759 = CYLINDRICAL_SURFACE('', #758, 0.030000000000000058);
#760 = CARTESIAN_POINT('', (0, 0.26, 0.04));
#761 = DIRECTION('', (0, 1, -0));
#762 = AXIS2_PLACEMENT_3D('', #760, #761, $);
#763 = PLANE('', #762);
#764 = CARTESIAN_POINT('', (-0.2799999999999999, 0.23, 0.04));
#765 = DIRECTION('', (0, -0, 1));
#766 = DIRECTION('', (-0.0000000000000018947806286936005, 1, 0));
#767 = AXIS2_PLACEMENT_3D('', #764, #765, #766);
#768 = CYLINDRICAL_SURFACE('', #767, 0.03);
#769 = CARTESIAN_POINT('', (-0.31, 0, 0.04));
#770 = DIRECTION('', (-1, -0, 0));
#771 = AXIS2_PLACEMENT_3D('', #769, #770, $);
#772 = PLANE('', #771);
#773 = CARTESIAN_POINT('', (-0.2799999999999999, -0.23, 0.04));
#774 = DIRECTION('', (0, 0, 1));
#775 = DIRECTION('', (-1, 0, 0));
#776 = AXIS2_PLACEMENT_3D('', #773, #774, #775);
#777 = CYLINDRICAL_SURFACE('', #776, 0.030000000000000058);
#778 = CARTESIAN_POINT('', (0, 0, 0));
#779 = DIRECTION('', (0, -0, 1));
#780 = AXIS2_PLACEMENT_3D('', #778, #779, $);
#781 = PLANE('', #780);
#782 = CARTESIAN_POINT('', (0, 0, 0.08));
#783 = DIRECTION('', (0, -0, 1));
#784 = AXIS2_PLACEMENT_3D('', #782, #783, $);
#785 = PLANE('', #784);
#786 = CARTESIAN_POINT('', (0, -0.2375, 0.0769995));
#787 = DIRECTION('', (0, -1, 0));
#788 = AXIS2_PLACEMENT_3D('', #786, #787, $);
#789 = PLANE('', #788);
#790 = CARTESIAN_POINT('', (0.2375, 0, 0.0769995));
#791 = DIRECTION('', (1, -0, 0));
#792 = AXIS2_PLACEMENT_3D('', #790, #791, $);
#793 = PLANE('', #792);
#794 = CARTESIAN_POINT('', (0, 0.2375, 0.0769995));
#795 = DIRECTION('', (0, 1, 0));
#796 = AXIS2_PLACEMENT_3D('', #794, #795, $);
#797 = PLANE('', #796);
#798 = CARTESIAN_POINT('', (-0.2375, 0, 0.0769995));
#799 = DIRECTION('', (-1, -0, 0));
#800 = AXIS2_PLACEMENT_3D('', #798, #799, $);
#801 = PLANE('', #800);
#802 = CARTESIAN_POINT('', (0, 0, 0.073999));
#803 = DIRECTION('', (0, -0, 1));
#804 = AXIS2_PLACEMENT_3D('', #802, #803, $);
#805 = PLANE('', #804);
#806 = CARTESIAN_POINT('', (-0.23999999999999994, 0.19, 0.06999949999999999));
#807 = DIRECTION('', (0, -0, 1));
#808 = DIRECTION('', (1, 0, 0));
#809 = AXIS2_PLACEMENT_3D('', #806, #807, #808);
#810 = CYLINDRICAL_SURFACE('', #809, 0.047499999999999945);
#811 = CARTESIAN_POINT('', (0, 0, 0.059999));
#812 = DIRECTION('', (0, -0, 1));
#813 = AXIS2_PLACEMENT_3D('', #811, #812, $);
#814 = PLANE('', #813);
#815 = CARTESIAN_POINT('', (0, 0, 0.08));
#816 = DIRECTION('', (0, -0, 1));
#817 = AXIS2_PLACEMENT_3D('', #815, #816, $);
#818 = PLANE('', #817);
#819 = CARTESIAN_POINT('', (0.24, 0.19, 0.06999949999999999));
#820 = DIRECTION('', (0, -0, 1));
#821 = DIRECTION('', (1, 0, 0));
#822 = AXIS2_PLACEMENT_3D('', #819, #820, #821);
#823 = CYLINDRICAL_SURFACE('', #822, 0.04);
#824 = CARTESIAN_POINT('', (0, 0, 0.059999));
#825 = DIRECTION('', (0, -0, 1));
#826 = AXIS2_PLACEMENT_3D('', #824, #825, $);
#827 = PLANE('', #826);
#828 = CARTESIAN_POINT('', (-0.28, -0.257, 0.003));
#829 = DIRECTION('', (0, -1, 0));
#830 = AXIS2_PLACEMENT_3D('', #828, #829, $);
#831 = PLANE('', #830);
#832 = CARTESIAN_POINT('', (0.27999999999999975, -0.22999999999999982, 0.04));
#833 = DIRECTION('', (-0, -0, 1));
#834 = DIRECTION('', (0.000000000000008421247238638172, -1, 0));
#835 = AXIS2_PLACEMENT_3D('', #832, #833, #834);
#836 = CYLINDRICAL_SURFACE('', #835, 0.02700000000000017);
#837 = CARTESIAN_POINT('', (0.307, -0.23, 0.003));
#838 = DIRECTION('', (1, -0, 0));
#839 = AXIS2_PLACEMENT_3D('', #837, #838, $);
#840 = PLANE('', #839);
#841 = CARTESIAN_POINT('', (0.2800000000000002, 0.23000000000000012, 0.03999999999999999));
#842 = DIRECTION('', (-0.000000000000000526327952414895, -0.0000000000000006353340404880413, 1));
#843 = DIRECTION('', (1, -0.000000000000004210623619319139, 0.00000000000000052632795241489235));
#844 = AXIS2_PLACEMENT_3D('', #841, #842, #843);
#845 = CYLINDRICAL_SURFACE('', #844, 0.02699999999999983);
#846 = CARTESIAN_POINT('', (0.28, 0.257, 0.003));
#847 = DIRECTION('', (0, 1, -0));
#848 = AXIS2_PLACEMENT_3D('', #846, #847, $);
#849 = PLANE('', #848);
#850 = CARTESIAN_POINT('', (-0.27999999999999975, 0.22999999999999982, 0.04));
#851 = DIRECTION('', (0, -0, 1));
#852 = DIRECTION('', (-0.000000000000008421247238638172, 1, 0));
#853 = AXIS2_PLACEMENT_3D('', #850, #851, #852);
#854 = CYLINDRICAL_SURFACE('', #853, 0.02700000000000017);
#855 = CARTESIAN_POINT('', (-0.307, 0.23, 0.003));
#856 = DIRECTION('', (-1, -0, 0));
#857 = AXIS2_PLACEMENT_3D('', #855, #856, $);
#858 = PLANE('', #857);
#859 = CARTESIAN_POINT('', (-0.2800000000000002, -0.23000000000000012, 0.03999999999999999));
#860 = DIRECTION('', (0.000000000000000526327952414895, 0.0000000000000006353340404880413, 1));
#861 = DIRECTION('', (-1, 0.000000000000004210623619319139, 0.00000000000000052632795241489235));
#862 = AXIS2_PLACEMENT_3D('', #859, #860, #861);
#863 = CYLINDRICAL_SURFACE('', #862, 0.02699999999999983);
#864 = CARTESIAN_POINT('', (-0.28, -0.257, 0.003));
#865 = DIRECTION('', (0, -0, 1));
#866 = AXIS2_PLACEMENT_3D('', #864, #865, $);
#867 = PLANE('', #866);
#868 = CARTESIAN_POINT('', (-0.28, -0.257, 0.077));
#869 = DIRECTION('', (0, -0, 1));
#870 = AXIS2_PLACEMENT_3D('', #868, #869, $);
#871 = PLANE('', #870);
#872 = CARTESIAN_POINT('', (-0.2405, -0.2405, 0.07099899999999999));
#873 = DIRECTION('', (0, -1, 0));
#874 = AXIS2_PLACEMENT_3D('', #872, #873, $);
#875 = PLANE('', #874);
#876 = CARTESIAN_POINT('', (0.2405, -0.2405, 0.07099899999999999));
#877 = DIRECTION('', (1, -0, 0));
#878 = AXIS2_PLACEMENT_3D('', #876, #877, $);
#879 = PLANE('', #878);
#880 = CARTESIAN_POINT('', (0.2405, 0.2405, 0.07099899999999999));
#881 = DIRECTION('', (0, 1, -0));
#882 = AXIS2_PLACEMENT_3D('', #880, #881, $);
#883 = PLANE('', #882);
#884 = CARTESIAN_POINT('', (-0.2405, 0.2405, 0.07099899999999999));
#885 = DIRECTION('', (-1, -0, 0));
#886 = AXIS2_PLACEMENT_3D('', #884, #885, $);
#887 = PLANE('', #886);
#888 = CARTESIAN_POINT('', (-0.2405, -0.2405, 0.07099899999999999));
#889 = DIRECTION('', (0, -0, 1));
#890 = AXIS2_PLACEMENT_3D('', #888, #889, $);
#891 = PLANE('', #890);
#892 = CARTESIAN_POINT('', (-0.23999999999999994, 0.19, 0.06999949999999999));
#893 = DIRECTION('', (0, -0, 1));
#894 = DIRECTION('', (1, 0, 0));
#895 = AXIS2_PLACEMENT_3D('', #892, #893, #894);
#896 = CYLINDRICAL_SURFACE('', #895, 0.04449999999999994);
#897 = CARTESIAN_POINT('', (-0.1955, 0.19, 0.062999));
#898 = DIRECTION('', (0, -0, 1));
#899 = AXIS2_PLACEMENT_3D('', #897, #898, $);
#900 = PLANE('', #899);
#901 = CARTESIAN_POINT('', (-0.1955, 0.19, 0.077));
#902 = DIRECTION('', (0, -0, 1));
#903 = AXIS2_PLACEMENT_3D('', #901, #902, $);
#904 = PLANE('', #903);
#905 = CARTESIAN_POINT('', (0.24, 0.19, 0.0669995));
#906 = DIRECTION('', (0, -0, 1));
#907 = DIRECTION('', (1, 0, 0));
#908 = AXIS2_PLACEMENT_3D('', #905, #906, #907);
#909 = CYLINDRICAL_SURFACE('', #908, 0.043);
#910 = CARTESIAN_POINT('', (0.283, 0.19, 0.056998999999999994));
#911 = DIRECTION('', (0, -0, 1));
#912 = AXIS2_PLACEMENT_3D('', #910, #911, $);
#913 = PLANE('', #912);
#914 = CARTESIAN_POINT('', (-0.22, 0.2535, 0.02));
#915 = DIRECTION('', (0, -0, -1));
#916 = AXIS2_PLACEMENT_3D('', #914, #915, $);
#917 = PLANE('', #916);
#918 = CARTESIAN_POINT('', (-0.18, 0.2535, 0.04));
#919 = DIRECTION('', (1, -0, -0));
#920 = AXIS2_PLACEMENT_3D('', #918, #919, $);
#921 = PLANE('', #920);
#922 = CARTESIAN_POINT('', (-0.22, 0.2535, 0.06));
#923 = DIRECTION('', (0, 0, 1));
#924 = AXIS2_PLACEMENT_3D('', #922, #923, $);
#925 = PLANE('', #924);
#926 = CARTESIAN_POINT('', (-0.26, 0.2535, 0.04));
#927 = DIRECTION('', (-1, -0, -0));
#928 = AXIS2_PLACEMENT_3D('', #926, #927, $);
#929 = PLANE('', #928);
#930 = CARTESIAN_POINT('', (0.24, 0.19, 0.085));
#931 = DIRECTION('', (0, -0, 1));
#932 = DIRECTION('', (1, 0, 0));
#933 = AXIS2_PLACEMENT_3D('', #930, #931, #932);
#934 = CYLINDRICAL_SURFACE('', #933, 0.045);
#935 = CARTESIAN_POINT('', (0, 0, 0.09));
#936 = DIRECTION('', (0, -0, 1));
#937 = AXIS2_PLACEMENT_3D('', #935, #936, $);
#938 = PLANE('', #937);
#939 = ORIENTED_EDGE('', *, *, #631, .T.);
#940 = ORIENTED_EDGE('', *, *, #632, .T.);
#941 = ORIENTED_EDGE('', *, *, #633, .F.);
#942 = ORIENTED_EDGE('', *, *, #634, .F.);
#943 = EDGE_LOOP('', (#939, #940, #941, #942));
#944 = FACE_BOUND('', #943, .T.);
#945 = ADVANCED_FACE('', (#944), #745, .T.);
#946 = ORIENTED_EDGE('', *, *, #635, .T.);
#947 = ORIENTED_EDGE('', *, *, #636, .T.);
#948 = ORIENTED_EDGE('', *, *, #637, .F.);
#949 = ORIENTED_EDGE('', *, *, #632, .F.);
#950 = EDGE_LOOP('', (#946, #947, #948, #949));
#951 = FACE_BOUND('', #950, .T.);
#952 = ADVANCED_FACE('', (#951), #750, .T.);
#953 = ORIENTED_EDGE('', *, *, #638, .T.);
#954 = ORIENTED_EDGE('', *, *, #639, .T.);
#955 = ORIENTED_EDGE('', *, *, #640, .F.);
#956 = ORIENTED_EDGE('', *, *, #636, .F.);
#957 = EDGE_LOOP('', (#953, #954, #955, #956));
#958 = FACE_BOUND('', #957, .T.);
#959 = ADVANCED_FACE('', (#958), #754, .T.);
#960 = ORIENTED_EDGE('', *, *, #641, .T.);
#961 = ORIENTED_EDGE('', *, *, #642, .T.);
#962 = ORIENTED_EDGE('', *, *, #643, .F.);
#963 = ORIENTED_EDGE('', *, *, #639, .F.);
#964 = EDGE_LOOP('', (#960, #961, #962, #963));
#965 = FACE_BOUND('', #964, .T.);
#966 = ADVANCED_FACE('', (#965), #759, .T.);
#967 = ORIENTED_EDGE('', *, *, #644, .T.);
#968 = ORIENTED_EDGE('', *, *, #645, .T.);
#969 = ORIENTED_EDGE('', *, *, #646, .F.);
#970 = ORIENTED_EDGE('', *, *, #642, .F.);
#971 = ORIENTED_EDGE('', *, *, #734, .T.);
#972 = ORIENTED_EDGE('', *, *, #727, .T.);
#973 = ORIENTED_EDGE('', *, *, #730, .T.);
#974 = ORIENTED_EDGE('', *, *, #732, .T.);
#975 = EDGE_LOOP('', (#967, #968, #969, #970));
#976 = FACE_BOUND('', #975, .T.);
#977 = EDGE_LOOP('', (#971, #972, #973, #974));
#978 = FACE_BOUND('', #977, .T.);
#979 = ADVANCED_FACE('', (#976, #978), #763, .T.);
#980 = ORIENTED_EDGE('', *, *, #647, .T.);
#981 = ORIENTED_EDGE('', *, *, #648, .T.);
#982 = ORIENTED_EDGE('', *, *, #649, .F.);
#983 = ORIENTED_EDGE('', *, *, #645, .F.);
#984 = EDGE_LOOP('', (#980, #981, #982, #983));
#985 = FACE_BOUND('', #984, .T.);
#986 = ADVANCED_FACE('', (#985), #768, .T.);
#987 = ORIENTED_EDGE('', *, *, #650, .T.);
#988 = ORIENTED_EDGE('', *, *, #651, .T.);
#989 = ORIENTED_EDGE('', *, *, #652, .F.);
#990 = ORIENTED_EDGE('', *, *, #648, .F.);
#991 = EDGE_LOOP('', (#987, #988, #989, #990));
#992 = FACE_BOUND('', #991, .T.);
#993 = ADVANCED_FACE('', (#992), #772, .T.);
#994 = ORIENTED_EDGE('', *, *, #653, .T.);
#995 = ORIENTED_EDGE('', *, *, #634, .T.);
#996 = ORIENTED_EDGE('', *, *, #654, .F.);
#997 = ORIENTED_EDGE('', *, *, #651, .F.);
#998 = EDGE_LOOP('', (#994, #995, #996, #997));
#999 = FACE_BOUND('', #998, .T.);
#1000 = ADVANCED_FACE('', (#999), #777, .T.);
#1001 = ORIENTED_EDGE('', *, *, #653, .F.);
#1002 = ORIENTED_EDGE('', *, *, #650, .F.);
#1003 = ORIENTED_EDGE('', *, *, #647, .F.);
#1004 = ORIENTED_EDGE('', *, *, #644, .F.);
#1005 = ORIENTED_EDGE('', *, *, #641, .F.);
#1006 = ORIENTED_EDGE('', *, *, #638, .F.);
#1007 = ORIENTED_EDGE('', *, *, #635, .F.);
#1008 = ORIENTED_EDGE('', *, *, #631, .F.);
#1009 = EDGE_LOOP('', (#1001, #1002, #1003, #1004, #1005, #1006, #1007, #1008));
#1010 = FACE_BOUND('', #1009, .T.);
#1011 = ADVANCED_FACE('', (#1010), #781, .F.);
#1012 = ORIENTED_EDGE('', *, *, #633, .T.);
#1013 = ORIENTED_EDGE('', *, *, #637, .T.);
#1014 = ORIENTED_EDGE('', *, *, #640, .T.);
#1015 = ORIENTED_EDGE('', *, *, #643, .T.);
#1016 = ORIENTED_EDGE('', *, *, #646, .T.);
#1017 = ORIENTED_EDGE('', *, *, #649, .T.);
#1018 = ORIENTED_EDGE('', *, *, #652, .T.);
#1019 = ORIENTED_EDGE('', *, *, #654, .T.);
#1020 = ORIENTED_EDGE('', *, *, #666, .F.);
#1021 = ORIENTED_EDGE('', *, *, #664, .F.);
#1022 = ORIENTED_EDGE('', *, *, #661, .F.);
#1023 = ORIENTED_EDGE('', *, *, #657, .F.);
#1024 = ORIENTED_EDGE('', *, *, #719, .F.);
#1025 = ORIENTED_EDGE('', *, *, #672, .F.);
#1026 = ORIENTED_EDGE('', *, *, #739, .F.);
#1027 = EDGE_LOOP('', (#1012, #1013, #1014, #1015, #1016, #1017, #1018, #1019));
#1028 = FACE_BOUND('', #1027, .T.);
#1029 = EDGE_LOOP('', (#1020, #1021, #1022, #1023));
#1030 = FACE_BOUND('', #1029, .T.);
#1031 = EDGE_LOOP('', (#1024, #1025));
#1032 = FACE_BOUND('', #1031, .T.);
#1033 = EDGE_LOOP('', (#1026));
#1034 = FACE_BOUND('', #1033, .T.);
#1035 = ADVANCED_FACE('', (#1028, #1030, #1032, #1034), #785, .T.);
#1036 = ORIENTED_EDGE('', *, *, #658, .T.);
#1037 = ORIENTED_EDGE('', *, *, #657, .T.);
#1038 = ORIENTED_EDGE('', *, *, #656, .F.);
#1039 = ORIENTED_EDGE('', *, *, #655, .F.);
#1040 = EDGE_LOOP('', (#1036, #1037, #1038, #1039));
#1041 = FACE_BOUND('', #1040, .T.);
#1042 = ADVANCED_FACE('', (#1041), #789, .F.);
#1043 = ORIENTED_EDGE('', *, *, #656, .T.);
#1044 = ORIENTED_EDGE('', *, *, #661, .T.);
#1045 = ORIENTED_EDGE('', *, *, #660, .F.);
#1046 = ORIENTED_EDGE('', *, *, #659, .F.);
#1047 = EDGE_LOOP('', (#1043, #1044, #1045, #1046));
#1048 = FACE_BOUND('', #1047, .T.);
#1049 = ADVANCED_FACE('', (#1048), #793, .F.);
#1050 = ORIENTED_EDGE('', *, *, #660, .T.);
#1051 = ORIENTED_EDGE('', *, *, #664, .T.);
#1052 = ORIENTED_EDGE('', *, *, #663, .F.);
#1053 = ORIENTED_EDGE('', *, *, #662, .F.);
#1054 = EDGE_LOOP('', (#1050, #1051, #1052, #1053));
#1055 = FACE_BOUND('', #1054, .T.);
#1056 = ADVANCED_FACE('', (#1055), #797, .F.);
#1057 = ORIENTED_EDGE('', *, *, #663, .T.);
#1058 = ORIENTED_EDGE('', *, *, #666, .T.);
#1059 = ORIENTED_EDGE('', *, *, #658, .F.);
#1060 = ORIENTED_EDGE('', *, *, #665, .F.);
#1061 = EDGE_LOOP('', (#1057, #1058, #1059, #1060));
#1062 = FACE_BOUND('', #1061, .T.);
#1063 = ADVANCED_FACE('', (#1062), #801, .F.);
#1064 = ORIENTED_EDGE('', *, *, #655, .T.);
#1065 = ORIENTED_EDGE('', *, *, #659, .T.);
#1066 = ORIENTED_EDGE('', *, *, #662, .T.);
#1067 = ORIENTED_EDGE('', *, *, #665, .T.);
#1068 = EDGE_LOOP('', (#1064, #1065, #1066, #1067));
#1069 = FACE_BOUND('', #1068, .T.);
#1070 = ADVANCED_FACE('', (#1069), #805, .T.);
#1071 = ORIENTED_EDGE('', *, *, #717, .T.);
#1072 = ORIENTED_EDGE('', *, *, #669, .F.);
#1073 = ORIENTED_EDGE('', *, *, #668, .F.);
#1074 = ORIENTED_EDGE('', *, *, #667, .T.);
#1075 = EDGE_LOOP('', (#1071, #1072, #1073, #1074));
#1076 = FACE_BOUND('', #1075, .T.);
#1077 = ADVANCED_FACE('', (#1076), #810, .T.);
#1078 = ORIENTED_EDGE('', *, *, #715, .F.);
#1079 = ORIENTED_EDGE('', *, *, #667, .F.);
#1080 = EDGE_LOOP('', (#1078, #1079));
#1081 = FACE_BOUND('', #1080, .T.);
#1082 = ADVANCED_FACE('', (#1081), #814, .F.);
#1083 = ORIENTED_EDGE('', *, *, #669, .T.);
#1084 = ORIENTED_EDGE('', *, *, #716, .T.);
#1085 = EDGE_LOOP('', (#1083, #1084));
#1086 = FACE_BOUND('', #1085, .T.);
#1087 = ADVANCED_FACE('', (#1086), #818, .T.);
#1088 = ORIENTED_EDGE('', *, *, #670, .F.);
#1089 = ORIENTED_EDGE('', *, *, #671, .T.);
#1090 = ORIENTED_EDGE('', *, *, #672, .T.);
#1091 = ORIENTED_EDGE('', *, *, #720, .F.);
#1092 = EDGE_LOOP('', (#1088, #1089, #1090, #1091));
#1093 = FACE_BOUND('', #1092, .T.);
#1094 = ADVANCED_FACE('', (#1093), #823, .F.);
#1095 = ORIENTED_EDGE('', *, *, #670, .T.);
#1096 = ORIENTED_EDGE('', *, *, #718, .T.);
#1097 = EDGE_LOOP('', (#1095, #1096));
#1098 = FACE_BOUND('', #1097, .T.);
#1099 = ADVANCED_FACE('', (#1098), #827, .T.);
#1100 = ORIENTED_EDGE('', *, *, #676, .T.);
#1101 = ORIENTED_EDGE('', *, *, #675, .T.);
#1102 = ORIENTED_EDGE('', *, *, #674, .F.);
#1103 = ORIENTED_EDGE('', *, *, #673, .F.);
#1104 = EDGE_LOOP('', (#1100, #1101, #1102, #1103));
#1105 = FACE_BOUND('', #1104, .T.);
#1106 = ADVANCED_FACE('', (#1105), #831, .F.);
#1107 = ORIENTED_EDGE('', *, *, #674, .T.);
#1108 = ORIENTED_EDGE('', *, *, #679, .T.);
#1109 = ORIENTED_EDGE('', *, *, #678, .F.);
#1110 = ORIENTED_EDGE('', *, *, #677, .F.);
#1111 = EDGE_LOOP('', (#1107, #1108, #1109, #1110));
#1112 = FACE_BOUND('', #1111, .T.);
#1113 = ADVANCED_FACE('', (#1112), #836, .F.);
#1114 = ORIENTED_EDGE('', *, *, #678, .T.);
#1115 = ORIENTED_EDGE('', *, *, #682, .T.);
#1116 = ORIENTED_EDGE('', *, *, #681, .F.);
#1117 = ORIENTED_EDGE('', *, *, #680, .F.);
#1118 = EDGE_LOOP('', (#1114, #1115, #1116, #1117));
#1119 = FACE_BOUND('', #1118, .T.);
#1120 = ADVANCED_FACE('', (#1119), #840, .F.);
#1121 = ORIENTED_EDGE('', *, *, #681, .T.);
#1122 = ORIENTED_EDGE('', *, *, #685, .T.);
#1123 = ORIENTED_EDGE('', *, *, #684, .F.);
#1124 = ORIENTED_EDGE('', *, *, #683, .F.);
#1125 = EDGE_LOOP('', (#1121, #1122, #1123, #1124));
#1126 = FACE_BOUND('', #1125, .T.);
#1127 = ADVANCED_FACE('', (#1126), #845, .F.);
#1128 = ORIENTED_EDGE('', *, *, #684, .T.);
#1129 = ORIENTED_EDGE('', *, *, #688, .T.);
#1130 = ORIENTED_EDGE('', *, *, #687, .F.);
#1131 = ORIENTED_EDGE('', *, *, #686, .F.);
#1132 = ORIENTED_EDGE('', *, *, #738, .T.);
#1133 = ORIENTED_EDGE('', *, *, #737, .T.);
#1134 = ORIENTED_EDGE('', *, *, #736, .T.);
#1135 = ORIENTED_EDGE('', *, *, #735, .T.);
#1136 = EDGE_LOOP('', (#1128, #1129, #1130, #1131));
#1137 = FACE_BOUND('', #1136, .T.);
#1138 = EDGE_LOOP('', (#1132, #1133, #1134, #1135));
#1139 = FACE_BOUND('', #1138, .T.);
#1140 = ADVANCED_FACE('', (#1137, #1139), #849, .F.);
#1141 = ORIENTED_EDGE('', *, *, #687, .T.);
#1142 = ORIENTED_EDGE('', *, *, #691, .T.);
#1143 = ORIENTED_EDGE('', *, *, #690, .F.);
#1144 = ORIENTED_EDGE('', *, *, #689, .F.);
#1145 = EDGE_LOOP('', (#1141, #1142, #1143, #1144));
#1146 = FACE_BOUND('', #1145, .T.);
#1147 = ADVANCED_FACE('', (#1146), #854, .F.);
#1148 = ORIENTED_EDGE('', *, *, #690, .T.);
#1149 = ORIENTED_EDGE('', *, *, #694, .T.);
#1150 = ORIENTED_EDGE('', *, *, #693, .F.);
#1151 = ORIENTED_EDGE('', *, *, #692, .F.);
#1152 = EDGE_LOOP('', (#1148, #1149, #1150, #1151));
#1153 = FACE_BOUND('', #1152, .T.);
#1154 = ADVANCED_FACE('', (#1153), #858, .F.);
#1155 = ORIENTED_EDGE('', *, *, #693, .T.);
#1156 = ORIENTED_EDGE('', *, *, #696, .T.);
#1157 = ORIENTED_EDGE('', *, *, #676, .F.);
#1158 = ORIENTED_EDGE('', *, *, #695, .F.);
#1159 = EDGE_LOOP('', (#1155, #1156, #1157, #1158));
#1160 = FACE_BOUND('', #1159, .T.);
#1161 = ADVANCED_FACE('', (#1160), #863, .F.);
#1162 = ORIENTED_EDGE('', *, *, #673, .T.);
#1163 = ORIENTED_EDGE('', *, *, #677, .T.);
#1164 = ORIENTED_EDGE('', *, *, #680, .T.);
#1165 = ORIENTED_EDGE('', *, *, #683, .T.);
#1166 = ORIENTED_EDGE('', *, *, #686, .T.);
#1167 = ORIENTED_EDGE('', *, *, #689, .T.);
#1168 = ORIENTED_EDGE('', *, *, #692, .T.);
#1169 = ORIENTED_EDGE('', *, *, #695, .T.);
#1170 = EDGE_LOOP('', (#1162, #1163, #1164, #1165, #1166, #1167, #1168, #1169));
#1171 = FACE_BOUND('', #1170, .T.);
#1172 = ADVANCED_FACE('', (#1171), #867, .T.);
#1173 = ORIENTED_EDGE('', *, *, #696, .F.);
#1174 = ORIENTED_EDGE('', *, *, #694, .F.);
#1175 = ORIENTED_EDGE('', *, *, #691, .F.);
#1176 = ORIENTED_EDGE('', *, *, #688, .F.);
#1177 = ORIENTED_EDGE('', *, *, #685, .F.);
#1178 = ORIENTED_EDGE('', *, *, #682, .F.);
#1179 = ORIENTED_EDGE('', *, *, #679, .F.);
#1180 = ORIENTED_EDGE('', *, *, #675, .F.);
#1181 = ORIENTED_EDGE('', *, *, #699, .T.);
#1182 = ORIENTED_EDGE('', *, *, #703, .T.);
#1183 = ORIENTED_EDGE('', *, *, #706, .T.);
#1184 = ORIENTED_EDGE('', *, *, #708, .T.);
#1185 = ORIENTED_EDGE('', *, *, #714, .T.);
#1186 = ORIENTED_EDGE('', *, *, #725, .T.);
#1187 = EDGE_LOOP('', (#1173, #1174, #1175, #1176, #1177, #1178, #1179, #1180));
#1188 = FACE_BOUND('', #1187, .T.);
#1189 = EDGE_LOOP('', (#1181, #1182, #1183, #1184));
#1190 = FACE_BOUND('', #1189, .T.);
#1191 = EDGE_LOOP('', (#1185, #1186));
#1192 = FACE_BOUND('', #1191, .T.);
#1193 = ADVANCED_FACE('', (#1188, #1190, #1192), #871, .F.);
#1194 = ORIENTED_EDGE('', *, *, #697, .T.);
#1195 = ORIENTED_EDGE('', *, *, #698, .T.);
#1196 = ORIENTED_EDGE('', *, *, #699, .F.);
#1197 = ORIENTED_EDGE('', *, *, #700, .F.);
#1198 = EDGE_LOOP('', (#1194, #1195, #1196, #1197));
#1199 = FACE_BOUND('', #1198, .T.);
#1200 = ADVANCED_FACE('', (#1199), #875, .T.);
#1201 = ORIENTED_EDGE('', *, *, #701, .T.);
#1202 = ORIENTED_EDGE('', *, *, #702, .T.);
#1203 = ORIENTED_EDGE('', *, *, #703, .F.);
#1204 = ORIENTED_EDGE('', *, *, #698, .F.);
#1205 = EDGE_LOOP('', (#1201, #1202, #1203, #1204));
#1206 = FACE_BOUND('', #1205, .T.);
#1207 = ADVANCED_FACE('', (#1206), #879, .T.);
#1208 = ORIENTED_EDGE('', *, *, #704, .T.);
#1209 = ORIENTED_EDGE('', *, *, #705, .T.);
#1210 = ORIENTED_EDGE('', *, *, #706, .F.);
#1211 = ORIENTED_EDGE('', *, *, #702, .F.);
#1212 = EDGE_LOOP('', (#1208, #1209, #1210, #1211));
#1213 = FACE_BOUND('', #1212, .T.);
#1214 = ADVANCED_FACE('', (#1213), #883, .T.);
#1215 = ORIENTED_EDGE('', *, *, #707, .T.);
#1216 = ORIENTED_EDGE('', *, *, #700, .T.);
#1217 = ORIENTED_EDGE('', *, *, #708, .F.);
#1218 = ORIENTED_EDGE('', *, *, #705, .F.);
#1219 = EDGE_LOOP('', (#1215, #1216, #1217, #1218));
#1220 = FACE_BOUND('', #1219, .T.);
#1221 = ADVANCED_FACE('', (#1220), #887, .T.);
#1222 = ORIENTED_EDGE('', *, *, #707, .F.);
#1223 = ORIENTED_EDGE('', *, *, #704, .F.);
#1224 = ORIENTED_EDGE('', *, *, #701, .F.);
#1225 = ORIENTED_EDGE('', *, *, #697, .F.);
#1226 = EDGE_LOOP('', (#1222, #1223, #1224, #1225));
#1227 = FACE_BOUND('', #1226, .T.);
#1228 = ADVANCED_FACE('', (#1227), #891, .F.);
#1229 = ORIENTED_EDGE('', *, *, #709, .F.);
#1230 = ORIENTED_EDGE('', *, *, #710, .T.);
#1231 = ORIENTED_EDGE('', *, *, #711, .T.);
#1232 = ORIENTED_EDGE('', *, *, #723, .F.);
#1233 = EDGE_LOOP('', (#1229, #1230, #1231, #1232));
#1234 = FACE_BOUND('', #1233, .T.);
#1235 = ADVANCED_FACE('', (#1234), #896, .F.);
#1236 = ORIENTED_EDGE('', *, *, #709, .T.);
#1237 = ORIENTED_EDGE('', *, *, #721, .T.);
#1238 = EDGE_LOOP('', (#1236, #1237));
#1239 = FACE_BOUND('', #1238, .T.);
#1240 = ADVANCED_FACE('', (#1239), #900, .T.);
#1241 = ORIENTED_EDGE('', *, *, #722, .F.);
#1242 = ORIENTED_EDGE('', *, *, #711, .F.);
#1243 = EDGE_LOOP('', (#1241, #1242));
#1244 = FACE_BOUND('', #1243, .T.);
#1245 = ADVANCED_FACE('', (#1244), #904, .F.);
#1246 = ORIENTED_EDGE('', *, *, #726, .T.);
#1247 = ORIENTED_EDGE('', *, *, #714, .F.);
#1248 = ORIENTED_EDGE('', *, *, #713, .F.);
#1249 = ORIENTED_EDGE('', *, *, #712, .T.);
#1250 = EDGE_LOOP('', (#1246, #1247, #1248, #1249));
#1251 = FACE_BOUND('', #1250, .T.);
#1252 = ADVANCED_FACE('', (#1251), #909, .T.);
#1253 = ORIENTED_EDGE('', *, *, #724, .F.);
#1254 = ORIENTED_EDGE('', *, *, #712, .F.);
#1255 = EDGE_LOOP('', (#1253, #1254));
#1256 = FACE_BOUND('', #1255, .T.);
#1257 = ADVANCED_FACE('', (#1256), #913, .F.);
#1258 = ORIENTED_EDGE('', *, *, #717, .F.);
#1259 = ORIENTED_EDGE('', *, *, #715, .T.);
#1260 = ORIENTED_EDGE('', *, *, #668, .T.);
#1261 = ORIENTED_EDGE('', *, *, #716, .F.);
#1262 = EDGE_LOOP('', (#1258, #1259, #1260, #1261));
#1263 = FACE_BOUND('', #1262, .T.);
#1264 = ADVANCED_FACE('', (#1263), #810, .T.);
#1265 = ORIENTED_EDGE('', *, *, #719, .T.);
#1266 = ORIENTED_EDGE('', *, *, #671, .F.);
#1267 = ORIENTED_EDGE('', *, *, #718, .F.);
#1268 = ORIENTED_EDGE('', *, *, #720, .T.);
#1269 = EDGE_LOOP('', (#1265, #1266, #1267, #1268));
#1270 = FACE_BOUND('', #1269, .T.);
#1271 = ADVANCED_FACE('', (#1270), #823, .F.);
#1272 = ORIENTED_EDGE('', *, *, #722, .T.);
#1273 = ORIENTED_EDGE('', *, *, #710, .F.);
#1274 = ORIENTED_EDGE('', *, *, #721, .F.);
#1275 = ORIENTED_EDGE('', *, *, #723, .T.);
#1276 = EDGE_LOOP('', (#1272, #1273, #1274, #1275));
#1277 = FACE_BOUND('', #1276, .T.);
#1278 = ADVANCED_FACE('', (#1277), #896, .F.);
#1279 = ORIENTED_EDGE('', *, *, #726, .F.);
#1280 = ORIENTED_EDGE('', *, *, #724, .T.);
#1281 = ORIENTED_EDGE('', *, *, #713, .T.);
#1282 = ORIENTED_EDGE('', *, *, #725, .F.);
#1283 = EDGE_LOOP('', (#1279, #1280, #1281, #1282));
#1284 = FACE_BOUND('', #1283, .T.);
#1285 = ADVANCED_FACE('', (#1284), #909, .T.);
#1286 = ORIENTED_EDGE('', *, *, #728, .F.);
#1287 = ORIENTED_EDGE('', *, *, #727, .F.);
#1288 = ORIENTED_EDGE('', *, *, #729, .T.);
#1289 = ORIENTED_EDGE('', *, *, #735, .F.);
#1290 = EDGE_LOOP('', (#1286, #1287, #1288, #1289));
#1291 = FACE_BOUND('', #1290, .T.);
#1292 = ADVANCED_FACE('', (#1291), #917, .F.);
#1293 = ORIENTED_EDGE('', *, *, #731, .F.);
#1294 = ORIENTED_EDGE('', *, *, #730, .F.);
#1295 = ORIENTED_EDGE('', *, *, #728, .T.);
#1296 = ORIENTED_EDGE('', *, *, #736, .F.);
#1297 = EDGE_LOOP('', (#1293, #1294, #1295, #1296));
#1298 = FACE_BOUND('', #1297, .T.);
#1299 = ADVANCED_FACE('', (#1298), #921, .F.);
#1300 = ORIENTED_EDGE('', *, *, #733, .F.);
#1301 = ORIENTED_EDGE('', *, *, #732, .F.);
#1302 = ORIENTED_EDGE('', *, *, #731, .T.);
#1303 = ORIENTED_EDGE('', *, *, #737, .F.);
#1304 = EDGE_LOOP('', (#1300, #1301, #1302, #1303));
#1305 = FACE_BOUND('', #1304, .T.);
#1306 = ADVANCED_FACE('', (#1305), #925, .F.);
#1307 = ORIENTED_EDGE('', *, *, #729, .F.);
#1308 = ORIENTED_EDGE('', *, *, #734, .F.);
#1309 = ORIENTED_EDGE('', *, *, #733, .T.);
#1310 = ORIENTED_EDGE('', *, *, #738, .F.);
#1311 = EDGE_LOOP('', (#1307, #1308, #1309, #1310));
#1312 = FACE_BOUND('', #1311, .T.);
#1313 = ADVANCED_FACE('', (#1312), #929, .F.);
#1314 = ORIENTED_EDGE('', *, *, #739, .T.);
#1315 = ORIENTED_EDGE('', *, *, #741, .F.);
#1316 = EDGE_LOOP('', (#1314));
#1317 = FACE_BOUND('', #1316, .T.);
#1318 = EDGE_LOOP('', (#1315));
#1319 = FACE_BOUND('', #1318, .T.);
#1320 = ADVANCED_FACE('', (#1317, #1319), #934, .T.);
#1321 = ORIENTED_EDGE('', *, *, #741, .T.);
#1322 = EDGE_LOOP('', (#1321));
#1323 = FACE_BOUND('', #1322, .T.);
#1324 = ADVANCED_FACE('', (#1323), #938, .T.);
#1325 = CLOSED_SHELL('', (#945, #952, #959, #966, #979, #986, #993, #1000, #1011, #1035, #1042, #1049, #1056, #1063, #1070, #1077, #1082, #1087, #1094, #1099, #1106, #1113, #1120, #1127, #1140, #1147, #1154, #1161, #1172, #1193, #1200, #1207, #1214, #1221, #1228, #1235, #1240, #1245, #1252, #1257, #1264, #1271, #1278, #1285, #1292, #1299, #1306, #1313, #1320, #1324));
#1326 = MANIFOLD_SOLID_BREP('', #1325);
#1327 = APPLICATION_CONTEXT('configuration controlled 3D design of mechanical parts and assemblies');
#1328 = PRODUCT_DEFINITION_CONTEXT('part definition', #1327, 'design');
#1329 = PRODUCT('UNIDENTIFIED_PRODUCT', '', $, ());
#1330 = PRODUCT_DEFINITION_FORMATION('', $, #1329);
#1331 = PRODUCT_DEFINITION('design', $, #1330, #1328);
#1332 = PRODUCT_DEFINITION_SHAPE('', $, #1331);
#1333 = ADVANCED_BREP_SHAPE_REPRESENTATION('', (#1326), #4);
#1334 = SHAPE_DEFINITION_REPRESENTATION(#1332, #1333);
#1335 = COLOUR_RGB('', 0.8999999761581421, 0.8999999761581421, 0.8999999761581421);
#1336 = FILL_AREA_STYLE_COLOUR('', #1335);
#1337 = FILL_AREA_STYLE('', (#1336));
#1338 = SURFACE_STYLE_FILL_AREA(#1337);
#1339 = SURFACE_SIDE_STYLE('', (#1338));
#1340 = SURFACE_STYLE_USAGE(.BOTH., #1339);
#1341 = PRESENTATION_STYLE_ASSIGNMENT((#1340));
#1342 = STYLED_ITEM('', (#1341), #1326);
#1343 = MECHANICAL_DESIGN_GEOMETRIC_PRESENTATION_REPRESENTATION('', (#1342), #4);
ENDSEC;
END-ISO-10303-21;
