{"scene":0,"scenes":[{"nodes":[0]}],"asset":{"version":"2.0","generator":"https://github.com/mikedh/trimesh"},"accessors":[{"componentType":5125,"type":"SCALAR","bufferView":0,"count":7656,"max":[1267],"min":[0]},{"componentType":5126,"type":"VEC3","byteOffset":0,"bufferView":1,"count":1268,"max":[40.0,25.0,4.0],"min":[-40.0,-25.0,-0.0010000000474974513]}],"meshes":[{"name":"tmppady2ecz.stl","extras":{"header":"STL Exported by Open CASCADE Technology [dev.opencascade.org]\u0000\u0000\u0000\u0000\u0000\u0000\u0000\u0000\u0000\u0000\u0000\u0000\u0000\u0000\u0000\u0000\u0000\u0000\u0000","processed":true},"primitives":[{"attributes":{"POSITION":1},"indices":0,"mode":4}]}],"nodes":[{"name":"world","children":[1]},{"name":"tmppady2ecz.stl","mesh":0}],"buffers":[{"uri":"gltf_buffer_0.bin","byteLength":30624},{"uri":"gltf_buffer_1.bin","byteLength":15216}],"bufferViews":[{"buffer":0,"byteOffset":0,"byteLength":30624},{"buffer":1,"byteOffset":0,"byteLength":15216}]}