ISO-10303-21;
HEADER;
FILE_DESCRIPTION(('Zoo Text-to-CAD'),'1');
FILE_NAME('dump.step', '2026-02-03T12:26:00.723751108+00:00', ('Author unknown'), ('Organization unknown'), 'zoo.dev beta', 'zoo.dev', 'Authorization unknown');
FILE_SCHEMA(('AP203_CONFIGURATION_CONTROLLED_3D_DESIGN_OF_MECHANICAL_PARTS_AND_ASSEMBLIES_MIM_LF'));
ENDSEC;
DATA;
#1 = (
  LENGTH_UNIT()
  NAMED_UNIT(*)
  SI_UNIT($, .METRE.)
);
#2 = (
  NAMED_UNIT(*)
  PLANE_ANGLE_UNIT()
  SI_UNIT($, .RADIAN.)
);
#3 = UNCERTAINTY_MEASURE_WITH_UNIT(LENGTH_MEASURE(0.00001), #1, 'DISTANCE_ACCURACY_VALUE', $);
#4 = (
  GEOMETRIC_REPRESENTATION_CONTEXT(3)
  GLOBAL_UNCERTAINTY_ASSIGNED_CONTEXT((#3))
  GLOBAL_UNIT_ASSIGNED_CONTEXT((#1, #2))
  REPRESENTATION_CONTEXT('', '3D')
);
#5 = CARTESIAN_POINT('', (-0.04, -0.025, 0));
#6 = VERTEX_POINT('', #5);
#7 = CARTESIAN_POINT('', (0.04, -0.025, 0));
#8 = VERTEX_POINT('', #7);
#9 = CARTESIAN_POINT('', (0.04, -0.025, 0.004));
#10 = VERTEX_POINT('', #9);
#11 = CARTESIAN_POINT('', (-0.04, -0.025, 0.004));
#12 = VERTEX_POINT('', #11);
#13 = CARTESIAN_POINT('', (0.04, 0.025, 0));
#14 = VERTEX_POINT('', #13);
#15 = CARTESIAN_POINT('', (0.04, 0.025, 0.004));
#16 = VERTEX_POINT('', #15);
#17 = CARTESIAN_POINT('', (-0.04, 0.025, 0));
#18 = VERTEX_POINT('', #17);
#19 = CARTESIAN_POINT('', (-0.04, 0.025, 0.004));
#20 = VERTEX_POINT('', #19);
#21 = CARTESIAN_POINT('', (-0.033, -0.02, -0.000001000000000000334));
#22 = VERTEX_POINT('', #21);
#23 = CARTESIAN_POINT('', (-0.033, -0.02, 0.004));
#24 = VERTEX_POINT('', #23);
#25 = CARTESIAN_POINT('', (-0.033, 0.02, -0.000001000000000000334));
#26 = VERTEX_POINT('', #25);
#27 = CARTESIAN_POINT('', (-0.033, 0.02, 0.004));
#28 = VERTEX_POINT('', #27);
#29 = CARTESIAN_POINT('', (0.037, -0.02, -0.000001000000000000334));
#30 = VERTEX_POINT('', #29);
#31 = CARTESIAN_POINT('', (0.037, -0.02, 0.004));
#32 = VERTEX_POINT('', #31);
#33 = CARTESIAN_POINT('', (0.037, 0.02, -0.000001000000000000334));
#34 = VERTEX_POINT('', #33);
#35 = CARTESIAN_POINT('', (0.037, 0.02, 0.004));
#36 = VERTEX_POINT('', #35);
#37 = CARTESIAN_POINT('', (0.004, 0, -0.000001000000000000334));
#38 = VERTEX_POINT('', #37);
#39 = CARTESIAN_POINT('', (0.004, 0, 0.004));
#40 = VERTEX_POINT('', #39);
#41 = DIRECTION('', (1, -0, 0));
#42 = VECTOR('', #41, 1);
#43 = CARTESIAN_POINT('', (-0.04, -0.025, 0));
#44 = LINE('', #43, #42);
#45 = DIRECTION('', (0, -0, 1));
#46 = VECTOR('', #45, 1);
#47 = CARTESIAN_POINT('', (0.04, -0.025, 0));
#48 = LINE('', #47, #46);
#49 = DIRECTION('', (1, -0, 0));
#50 = VECTOR('', #49, 1);
#51 = CARTESIAN_POINT('', (-0.04, -0.025, 0.004));
#52 = LINE('', #51, #50);
#53 = DIRECTION('', (0, -0, 1));
#54 = VECTOR('', #53, 1);
#55 = CARTESIAN_POINT('', (-0.04, -0.025, 0));
#56 = LINE('', #55, #54);
#57 = DIRECTION('', (0, 1, 0));
#58 = VECTOR('', #57, 1);
#59 = CARTESIAN_POINT('', (0.04, -0.025, 0));
#60 = LINE('', #59, #58);
#61 = DIRECTION('', (0, -0, 1));
#62 = VECTOR('', #61, 1);
#63 = CARTESIAN_POINT('', (0.04, 0.025, 0));
#64 = LINE('', #63, #62);
#65 = DIRECTION('', (0, 1, 0));
#66 = VECTOR('', #65, 1);
#67 = CARTESIAN_POINT('', (0.04, -0.025, 0.004));
#68 = LINE('', #67, #66);
#69 = DIRECTION('', (-1, -0, 0));
#70 = VECTOR('', #69, 1);
#71 = CARTESIAN_POINT('', (0.04, 0.025, 0));
#72 = LINE('', #71, #70);
#73 = DIRECTION('', (0, -0, 1));
#74 = VECTOR('', #73, 1);
#75 = CARTESIAN_POINT('', (-0.04, 0.025, 0));
#76 = LINE('', #75, #74);
#77 = DIRECTION('', (-1, -0, 0));
#78 = VECTOR('', #77, 1);
#79 = CARTESIAN_POINT('', (0.04, 0.025, 0.004));
#80 = LINE('', #79, #78);
#81 = DIRECTION('', (0, -1, 0));
#82 = VECTOR('', #81, 1);
#83 = CARTESIAN_POINT('', (-0.04, 0.025, 0));
#84 = LINE('', #83, #82);
#85 = DIRECTION('', (0, -1, 0));
#86 = VECTOR('', #85, 1);
#87 = CARTESIAN_POINT('', (-0.04, 0.025, 0.004));
#88 = LINE('', #87, #86);
#89 = DIRECTION('', (1, 0.0000000000000035527136788004883, 0));
#90 = DIRECTION('', (0, -0, 1));
#91 = CARTESIAN_POINT('', (-0.03500000000000001, -0.020000000000000007, -0.000001000000000000334));
#92 = AXIS2_PLACEMENT_3D('', #91, #90, #89);
#93 = CIRCLE('', #92, 0.002000000000000007);
#94 = DIRECTION('', (0, -0, 1));
#95 = VECTOR('', #94, 1);
#96 = CARTESIAN_POINT('', (-0.033, -0.02, -0.000001000000000000334));
#97 = LINE('', #96, #95);
#98 = DIRECTION('', (1, 0.0000000000000035527136788004883, 0));
#99 = DIRECTION('', (0, -0, 1));
#100 = CARTESIAN_POINT('', (-0.03500000000000001, -0.020000000000000007, 0.004));
#101 = AXIS2_PLACEMENT_3D('', #100, #99, #98);
#102 = CIRCLE('', #101, 0.002000000000000007);
#103 = DIRECTION('', (1, 0, 0));
#104 = DIRECTION('', (0, -0, 1));
#105 = CARTESIAN_POINT('', (-0.03500000000000001, 0.02, -0.000001000000000000334));
#106 = AXIS2_PLACEMENT_3D('', #105, #104, #103);
#107 = CIRCLE('', #106, 0.002000000000000007);
#108 = DIRECTION('', (0, -0, 1));
#109 = VECTOR('', #108, 1);
#110 = CARTESIAN_POINT('', (-0.033, 0.02, -0.000001000000000000334));
#111 = LINE('', #110, #109);
#112 = DIRECTION('', (1, 0, 0));
#113 = DIRECTION('', (0, -0, 1));
#114 = CARTESIAN_POINT('', (-0.03500000000000001, 0.02, 0.004));
#115 = AXIS2_PLACEMENT_3D('', #114, #113, #112);
#116 = CIRCLE('', #115, 0.002000000000000007);
#117 = DIRECTION('', (1, 0, 0));
#118 = DIRECTION('', (0, -0, 1));
#119 = CARTESIAN_POINT('', (0.03500000000000001, -0.02, -0.000001000000000000334));
#120 = AXIS2_PLACEMENT_3D('', #119, #118, #117);
#121 = CIRCLE('', #120, 0.001999999999999993);
#122 = DIRECTION('', (0, -0, 1));
#123 = VECTOR('', #122, 1);
#124 = CARTESIAN_POINT('', (0.037, -0.02, -0.000001000000000000334));
#125 = LINE('', #124, #123);
#126 = DIRECTION('', (1, 0, 0));
#127 = DIRECTION('', (0, -0, 1));
#128 = CARTESIAN_POINT('', (0.03500000000000001, -0.02, 0.004));
#129 = AXIS2_PLACEMENT_3D('', #128, #127, #126);
#130 = CIRCLE('', #129, 0.001999999999999993);
#131 = DIRECTION('', (1, -0.0000000000000035527136788005136, 0));
#132 = DIRECTION('', (-0, -0, 1));
#133 = CARTESIAN_POINT('', (0.03500000000000001, 0.020000000000000007, -0.000001000000000000334));
#134 = AXIS2_PLACEMENT_3D('', #133, #132, #131);
#135 = CIRCLE('', #134, 0.001999999999999993);
#136 = DIRECTION('', (0, -0, 1));
#137 = VECTOR('', #136, 1);
#138 = CARTESIAN_POINT('', (0.037, 0.02, -0.000001000000000000334));
#139 = LINE('', #138, #137);
#140 = DIRECTION('', (1, -0.0000000000000035527136788005136, 0));
#141 = DIRECTION('', (-0, -0, 1));
#142 = CARTESIAN_POINT('', (0.03500000000000001, 0.020000000000000007, 0.004));
#143 = AXIS2_PLACEMENT_3D('', #142, #141, #140);
#144 = CIRCLE('', #143, 0.001999999999999993);
#145 = DIRECTION('', (1, -0.00000000000000007850462293418876, 0));
#146 = DIRECTION('', (-0, -0, 1));
#147 = CARTESIAN_POINT('', (0.00000000000000000000000000000000003486305596842099, 0.00000000000000000031401849173675505, -0.000001000000000000334));
#148 = AXIS2_PLACEMENT_3D('', #147, #146, #145);
#149 = CIRCLE('', #148, 0.004);
#150 = DIRECTION('', (0, -0, 1));
#151 = VECTOR('', #150, 1);
#152 = CARTESIAN_POINT('', (0.004, 0, -0.000001000000000000334));
#153 = LINE('', #152, #151);
#154 = DIRECTION('', (1, -0.00000000000000007850462293418876, 0));
#155 = DIRECTION('', (-0, -0, 1));
#156 = CARTESIAN_POINT('', (0.00000000000000000000000000000000003486305596842099, 0.00000000000000000031401849173675505, 0.004));
#157 = AXIS2_PLACEMENT_3D('', #156, #155, #154);
#158 = CIRCLE('', #157, 0.004);
#159 = EDGE_CURVE('', #6, #8, #44, .T.);
#160 = EDGE_CURVE('', #8, #10, #48, .T.);
#161 = EDGE_CURVE('', #12, #10, #52, .T.);
#162 = EDGE_CURVE('', #6, #12, #56, .T.);
#163 = EDGE_CURVE('', #8, #14, #60, .T.);
#164 = EDGE_CURVE('', #14, #16, #64, .T.);
#165 = EDGE_CURVE('', #10, #16, #68, .T.);
#166 = EDGE_CURVE('', #14, #18, #72, .T.);
#167 = EDGE_CURVE('', #18, #20, #76, .T.);
#168 = EDGE_CURVE('', #16, #20, #80, .T.);
#169 = EDGE_CURVE('', #18, #6, #84, .T.);
#170 = EDGE_CURVE('', #20, #12, #88, .T.);
#171 = EDGE_CURVE('', #22, #22, #93, .T.);
#172 = EDGE_CURVE('', #22, #24, #97, .T.);
#173 = EDGE_CURVE('', #24, #24, #102, .T.);
#174 = EDGE_CURVE('', #26, #26, #107, .T.);
#175 = EDGE_CURVE('', #26, #28, #111, .T.);
#176 = EDGE_CURVE('', #28, #28, #116, .T.);
#177 = EDGE_CURVE('', #30, #30, #121, .T.);
#178 = EDGE_CURVE('', #30, #32, #125, .T.);
#179 = EDGE_CURVE('', #32, #32, #130, .T.);
#180 = EDGE_CURVE('', #34, #34, #135, .T.);
#181 = EDGE_CURVE('', #34, #36, #139, .T.);
#182 = EDGE_CURVE('', #36, #36, #144, .T.);
#183 = EDGE_CURVE('', #38, #38, #149, .T.);
#184 = EDGE_CURVE('', #38, #40, #153, .T.);
#185 = EDGE_CURVE('', #40, #40, #158, .T.);
#186 = CARTESIAN_POINT('', (0, -0.025, 0.002));
#187 = DIRECTION('', (0, -1, 0));
#188 = AXIS2_PLACEMENT_3D('', #186, #187, $);
#189 = PLANE('', #188);
#190 = CARTESIAN_POINT('', (0.04, 0, 0.002));
#191 = DIRECTION('', (1, -0, 0));
#192 = AXIS2_PLACEMENT_3D('', #190, #191, $);
#193 = PLANE('', #192);
#194 = CARTESIAN_POINT('', (0, 0.025, 0.002));
#195 = DIRECTION('', (0, 1, -0));
#196 = AXIS2_PLACEMENT_3D('', #194, #195, $);
#197 = PLANE('', #196);
#198 = CARTESIAN_POINT('', (-0.04, 0, 0.002));
#199 = DIRECTION('', (-1, -0, 0));
#200 = AXIS2_PLACEMENT_3D('', #198, #199, $);
#201 = PLANE('', #200);
#202 = CARTESIAN_POINT('', (0, 0, 0));
#203 = DIRECTION('', (0, -0, 1));
#204 = AXIS2_PLACEMENT_3D('', #202, #203, $);
#205 = PLANE('', #204);
#206 = CARTESIAN_POINT('', (0, 0, 0.004));
#207 = DIRECTION('', (0, -0, 1));
#208 = AXIS2_PLACEMENT_3D('', #206, #207, $);
#209 = PLANE('', #208);
#210 = CARTESIAN_POINT('', (-0.03500000000000001, -0.020000000000000007, 0.0019995));
#211 = DIRECTION('', (0, -0, 1));
#212 = DIRECTION('', (1, 0.0000000000000035527136788004883, 0));
#213 = AXIS2_PLACEMENT_3D('', #210, #211, #212);
#214 = CYLINDRICAL_SURFACE('', #213, 0.002000000000000007);
#215 = CARTESIAN_POINT('', (-0.03500000000000001, 0.02, 0.0019995));
#216 = DIRECTION('', (0, -0, 1));
#217 = DIRECTION('', (1, 0, 0));
#218 = AXIS2_PLACEMENT_3D('', #215, #216, #217);
#219 = CYLINDRICAL_SURFACE('', #218, 0.002000000000000007);
#220 = CARTESIAN_POINT('', (0.03500000000000001, -0.02, 0.0019995));
#221 = DIRECTION('', (0, -0, 1));
#222 = DIRECTION('', (1, 0, 0));
#223 = AXIS2_PLACEMENT_3D('', #220, #221, #222);
#224 = CYLINDRICAL_SURFACE('', #223, 0.001999999999999993);
#225 = CARTESIAN_POINT('', (0.03500000000000001, 0.020000000000000007, 0.0019995));
#226 = DIRECTION('', (-0, -0, 1));
#227 = DIRECTION('', (1, -0.0000000000000035527136788005136, 0));
#228 = AXIS2_PLACEMENT_3D('', #225, #226, #227);
#229 = CYLINDRICAL_SURFACE('', #228, 0.001999999999999993);
#230 = CARTESIAN_POINT('', (0.00000000000000000000000000000000003486305596842099, 0.00000000000000000031401849173675505, 0.0019995));
#231 = DIRECTION('', (-0, -0, 1));
#232 = DIRECTION('', (1, -0.00000000000000007850462293418876, 0));
#233 = AXIS2_PLACEMENT_3D('', #230, #231, #232);
#234 = CYLINDRICAL_SURFACE('', #233, 0.004);
#235 = ORIENTED_EDGE('', *, *, #159, .T.);
#236 = ORIENTED_EDGE('', *, *, #160, .T.);
#237 = ORIENTED_EDGE('', *, *, #161, .F.);
#238 = ORIENTED_EDGE('', *, *, #162, .F.);
#239 = EDGE_LOOP('', (#235, #236, #237, #238));
#240 = FACE_BOUND('', #239, .T.);
#241 = ADVANCED_FACE('', (#240), #189, .T.);
#242 = ORIENTED_EDGE('', *, *, #163, .T.);
#243 = ORIENTED_EDGE('', *, *, #164, .T.);
#244 = ORIENTED_EDGE('', *, *, #165, .F.);
#245 = ORIENTED_EDGE('', *, *, #160, .F.);
#246 = EDGE_LOOP('', (#242, #243, #244, #245));
#247 = FACE_BOUND('', #246, .T.);
#248 = ADVANCED_FACE('', (#247), #193, .T.);
#249 = ORIENTED_EDGE('', *, *, #166, .T.);
#250 = ORIENTED_EDGE('', *, *, #167, .T.);
#251 = ORIENTED_EDGE('', *, *, #168, .F.);
#252 = ORIENTED_EDGE('', *, *, #164, .F.);
#253 = EDGE_LOOP('', (#249, #250, #251, #252));
#254 = FACE_BOUND('', #253, .T.);
#255 = ADVANCED_FACE('', (#254), #197, .T.);
#256 = ORIENTED_EDGE('', *, *, #169, .T.);
#257 = ORIENTED_EDGE('', *, *, #162, .T.);
#258 = ORIENTED_EDGE('', *, *, #170, .F.);
#259 = ORIENTED_EDGE('', *, *, #167, .F.);
#260 = EDGE_LOOP('', (#256, #257, #258, #259));
#261 = FACE_BOUND('', #260, .T.);
#262 = ADVANCED_FACE('', (#261), #201, .T.);
#263 = ORIENTED_EDGE('', *, *, #169, .F.);
#264 = ORIENTED_EDGE('', *, *, #166, .F.);
#265 = ORIENTED_EDGE('', *, *, #163, .F.);
#266 = ORIENTED_EDGE('', *, *, #159, .F.);
#267 = ORIENTED_EDGE('', *, *, #171, .T.);
#268 = ORIENTED_EDGE('', *, *, #174, .T.);
#269 = ORIENTED_EDGE('', *, *, #177, .T.);
#270 = ORIENTED_EDGE('', *, *, #180, .T.);
#271 = ORIENTED_EDGE('', *, *, #183, .T.);
#272 = EDGE_LOOP('', (#263, #264, #265, #266));
#273 = FACE_BOUND('', #272, .T.);
#274 = EDGE_LOOP('', (#267));
#275 = FACE_BOUND('', #274, .T.);
#276 = EDGE_LOOP('', (#268));
#277 = FACE_BOUND('', #276, .T.);
#278 = EDGE_LOOP('', (#269));
#279 = FACE_BOUND('', #278, .T.);
#280 = EDGE_LOOP('', (#270));
#281 = FACE_BOUND('', #280, .T.);
#282 = EDGE_LOOP('', (#271));
#283 = FACE_BOUND('', #282, .T.);
#284 = ADVANCED_FACE('', (#273, #275, #277, #279, #281, #283), #205, .F.);
#285 = ORIENTED_EDGE('', *, *, #161, .T.);
#286 = ORIENTED_EDGE('', *, *, #165, .T.);
#287 = ORIENTED_EDGE('', *, *, #168, .T.);
#288 = ORIENTED_EDGE('', *, *, #170, .T.);
#289 = ORIENTED_EDGE('', *, *, #173, .F.);
#290 = ORIENTED_EDGE('', *, *, #176, .F.);
#291 = ORIENTED_EDGE('', *, *, #179, .F.);
#292 = ORIENTED_EDGE('', *, *, #182, .F.);
#293 = ORIENTED_EDGE('', *, *, #185, .F.);
#294 = EDGE_LOOP('', (#285, #286, #287, #288));
#295 = FACE_BOUND('', #294, .T.);
#296 = EDGE_LOOP('', (#289));
#297 = FACE_BOUND('', #296, .T.);
#298 = EDGE_LOOP('', (#290));
#299 = FACE_BOUND('', #298, .T.);
#300 = EDGE_LOOP('', (#291));
#301 = FACE_BOUND('', #300, .T.);
#302 = EDGE_LOOP('', (#292));
#303 = FACE_BOUND('', #302, .T.);
#304 = EDGE_LOOP('', (#293));
#305 = FACE_BOUND('', #304, .T.);
#306 = ADVANCED_FACE('', (#295, #297, #299, #301, #303, #305), #209, .T.);
#307 = ORIENTED_EDGE('', *, *, #171, .F.);
#308 = ORIENTED_EDGE('', *, *, #173, .T.);
#309 = EDGE_LOOP('', (#307));
#310 = FACE_BOUND('', #309, .T.);
#311 = EDGE_LOOP('', (#308));
#312 = FACE_BOUND('', #311, .T.);
#313 = ADVANCED_FACE('', (#310, #312), #214, .F.);
#314 = ORIENTED_EDGE('', *, *, #174, .F.);
#315 = ORIENTED_EDGE('', *, *, #176, .T.);
#316 = EDGE_LOOP('', (#314));
#317 = FACE_BOUND('', #316, .T.);
#318 = EDGE_LOOP('', (#315));
#319 = FACE_BOUND('', #318, .T.);
#320 = ADVANCED_FACE('', (#317, #319), #219, .F.);
#321 = ORIENTED_EDGE('', *, *, #177, .F.);
#322 = ORIENTED_EDGE('', *, *, #179, .T.);
#323 = EDGE_LOOP('', (#321));
#324 = FACE_BOUND('', #323, .T.);
#325 = EDGE_LOOP('', (#322));
#326 = FACE_BOUND('', #325, .T.);
#327 = ADVANCED_FACE('', (#324, #326), #224, .F.);
#328 = ORIENTED_EDGE('', *, *, #180, .F.);
#329 = ORIENTED_EDGE('', *, *, #182, .T.);
#330 = EDGE_LOOP('', (#328));
#331 = FACE_BOUND('', #330, .T.);
#332 = EDGE_LOOP('', (#329));
#333 = FACE_BOUND('', #332, .T.);
#334 = ADVANCED_FACE('', (#331, #333), #229, .F.);
#335 = ORIENTED_EDGE('', *, *, #183, .F.);
#336 = ORIENTED_EDGE('', *, *, #185, .T.);
#337 = EDGE_LOOP('', (#335));
#338 = FACE_BOUND('', #337, .T.);
#339 = EDGE_LOOP('', (#336));
#340 = FACE_BOUND('', #339, .T.);
#341 = ADVANCED_FACE('', (#338, #340), #234, .F.);
#342 = CLOSED_SHELL('', (#241, #248, #255, #262, #284, #306, #313, #320, #327, #334, #341));
#343 = MANIFOLD_SOLID_BREP('', #342);
#344 = APPLICATION_CONTEXT('configuration controlled 3D design of mechanical parts and assemblies');
#345 = PRODUCT_DEFINITION_CONTEXT('part definition', #344, 'design');
#346 = PRODUCT('UNIDENTIFIED_PRODUCT', '', $, ());
#347 = PRODUCT_DEFINITION_FORMATION('', $, #346);
#348 = PRODUCT_DEFINITION('design', $, #347, #345);
#349 = PRODUCT_DEFINITION_SHAPE('', $, #348);
#350 = ADVANCED_BREP_SHAPE_REPRESENTATION('', (#343), #4);
#351 = SHAPE_DEFINITION_REPRESENTATION(#349, #350);
#352 = COLOUR_RGB('', 0.8999999761581421, 0.8999999761581421, 0.8999999761581421);
#353 = FILL_AREA_STYLE_COLOUR('', #352);
#354 = FILL_AREA_STYLE('', (#353));
#355 = SURFACE_STYLE_FILL_AREA(#354);
#356 = SURFACE_SIDE_STYLE('', (#355));
#357 = SURFACE_STYLE_USAGE(.BOTH., #356);
#358 = PRESENTATION_STYLE_ASSIGNMENT((#357));
#359 = STYLED_ITEM('', (#358), #343);
#360 = MECHANICAL_DESIGN_GEOMETRIC_PRESENTATION_REPRESENTATION('', (#359), #4);
ENDSEC;
END-ISO-10303-21;
